<svg id="eyarop7ra321" xmlns="http://www.w3.org/2000/svg" xmlns:xlink="http://www.w3.org/1999/xlink" viewBox="0 0 900 885" shape-rendering="geometricPrecision" text-rendering="geometricPrecision"><g id="eyarop7ra322" transform="matrix(0.10000000000000 0 0 -0.10000000000000 0 885)"><path id="eyarop7ra323" d="M3324,8724C3310,8716,3287,8710,3275,8710C3262,8710,3239,8704,3223,8696C3208,8688,3177,8673,3155,8664C3105,8642,2994,8554,2954,8503C2923,8463,2860,8315,2860,8281C2860,8270,2856,8251,2850,8238C2845,8225,2836,8196,2830,8173C2818,8124,2809,8120,2790,8155C2783,8169,2757,8195,2734,8214C2697,8242,2679,8248,2619,8254C2565,8259,2540,8257,2518,8245C2501,8237,2483,8233,2478,8236C2473,8239,2451,8232,2429,8221C2407,8209,2382,8200,2372,8199C2363,8199,2342,8190,2325,8179C2309,8169,2284,8155,2270,8148C2233,8130,2149,8074,2119,8048C2104,8035,2073,8009,2050,7990C2026,7971,1990,7932,1969,7904C1949,7876,1926,7847,1918,7839C1911,7831,1888,7800,1867,7769C1829,7710,1780,7673,1726,7663C1653,7648,1501,7553,1427,7477C1386,7434,1320,7343,1320,7329C1320,7322,1314,7309,1306,7301C1274,7264,1259,7173,1261,7022C1262,6870,1275,6790,1311,6713C1321,6689,1330,6664,1330,6656C1330,6647,1341,6624,1355,6604C1369,6584,1378,6565,1376,6562C1373,6560,1352,6573,1328,6592C1232,6668,1182,6679,1119,6637C1082,6612,990,6495,990,6473C990,6465,981,6447,970,6432C913,6355,895,6156,930,5986L951,5879L896,5769C865,5708,840,5648,840,5636C840,5624,835,5609,828,5602C809,5583,791,5520,779,5431C765,5328,775,5146,796,5129C804,5123,810,5112,810,5104C810,5079,916,4919,977,4853C1028,4798,1157,4690,1171,4690C1176,4690,1180,4685,1180,4679C1180,4672,1160,4671,1117,4675C1032,4684,1007,4672,974,4608C941,4544,940,4462,970,4394C981,4371,990,4342,990,4332C990,4295,1032,4219,1077,4173C1090,4161,1100,4147,1100,4142C1100,4137,1115,4125,1133,4115C1165,4098,1168,4098,1196,4115C1212,4125,1242,4149,1262,4168L1299,4203L1311,4174C1317,4158,1323,4084,1325,4010C1327,3912,1334,3850,1350,3785C1377,3677,1426,3544,1452,3511C1462,3498,1470,3484,1470,3479C1470,3461,1528,3381,1580,3326C1656,3246,1826,3120,1857,3120C1864,3120,1887,3111,1910,3099C1943,3082,1959,3079,2002,3085C2054,3092,2060,3097,2123,3170C2142,3192,2146,3225,2130,3235C2124,3239,2122,3246,2126,3251C2134,3264,2160,3228,2196,3155C2234,3076,2288,2984,2324,2935C2381,2858,2558,2700,2589,2700C2593,2700,2614,2687,2636,2671C2657,2656,2692,2640,2713,2637C2752,2631,2808,2594,2809,2573C2810,2551,2790,2549,2717,2561C2645,2573,2643,2573,2472,2543C2453,2540,2428,2542,2417,2548C2348,2580,2311,2584,2222,2568C2151,2555,2116,2554,2027,2563C1944,2571,1912,2571,1885,2561C1859,2552,1846,2552,1829,2560C1817,2567,1761,2572,1699,2572L1590,2572L1590,2601C1590,2618,1579,2642,1561,2662C1536,2690,1526,2694,1489,2693C1432,2691,1308,2691,1248,2693C1206,2695,1197,2691,1162,2657C1116,2612,1091,2611,1047,2650C1000,2691,967,2701,903,2694C840,2686,807,2658,788,2597C782,2577,771,2555,763,2549C753,2540,750,2504,750,2405C750,2287,752,2271,770,2250C781,2237,790,2218,790,2208C790,2181,813,2139,844,2111C858,2097,870,2082,870,2077C870,2072,853,2051,833,2031C810,2009,787,1972,776,1940C758,1889,756,1860,759,1551C761,1283,764,1211,776,1189C784,1174,790,1154,790,1144C790,1135,805,1113,824,1094C855,1063,864,1060,915,1060C962,1060,979,1065,1016,1091L1061,1122L1109,1091C1145,1068,1168,1060,1203,1060C1267,1060,1296,1073,1323,1117C1354,1166,1361,1226,1362,1470C1364,1646,1365,1666,1382,1678C1392,1685,1400,1697,1400,1704C1400,1721,1425,1731,1445,1724C1453,1720,1460,1710,1460,1700C1460,1690,1466,1677,1474,1671C1485,1662,1489,1608,1493,1427C1496,1300,1502,1183,1505,1168C1509,1153,1528,1123,1547,1101C1580,1061,1584,1060,1642,1060C1692,1060,1709,1065,1736,1085C1776,1116,1790,1116,1825,1088C1846,1072,1871,1065,1914,1062C1973,1058,1976,1059,2020,1099L2065,1139L2070,1400C2075,1639,2077,1662,2093,1672C2103,1677,2115,1693,2121,1707C2133,1740,2173,1736,2178,1700C2180,1687,2189,1671,2197,1665C2207,1657,2209,1648,2202,1630C2197,1616,2196,1522,2200,1410C2208,1180,2222,1121,2280,1082C2308,1063,2325,1060,2374,1062C2432,1065,2435,1066,2467,1110C2486,1135,2507,1164,2515,1175C2523,1185,2530,1201,2530,1210C2530,1218,2534,1231,2539,1239C2546,1250,2556,1245,2588,1214C2678,1125,2833,1040,2876,1057C2884,1060,2899,1055,2909,1046C2924,1032,2929,1032,2933,1042C2938,1053,2940,1053,2948,1042C2954,1032,2967,1031,3001,1039C3025,1044,3072,1051,3105,1055C3138,1059,3189,1073,3219,1087C3304,1128,3450,1281,3450,1331C3450,1340,3460,1358,3473,1372C3486,1386,3502,1411,3510,1429C3525,1465,3543,1465,3548,1429C3550,1416,3557,1398,3564,1390C3583,1366,3608,1300,3621,1236C3628,1204,3640,1176,3647,1173C3654,1170,3660,1161,3660,1152C3660,1144,3678,1120,3700,1098C3741,1060,3741,1060,3826,1060L3910,1060L3956,1102C3981,1125,3999,1149,3996,1155C3992,1167,4029,1249,4050,1275C4056,1282,4058,1300,4054,1315C4049,1336,4051,1342,4068,1347C4080,1350,4092,1361,4095,1371C4099,1382,4109,1394,4119,1400C4136,1408,4138,1403,4144,1347C4158,1204,4163,1174,4175,1160C4182,1152,4191,1135,4194,1123C4213,1063,4337,1036,4393,1080C4435,1113,4464,1169,4461,1210C4460,1234,4464,1251,4474,1259C4483,1267,4490,1279,4490,1286C4490,1304,4534,1325,4554,1317C4563,1313,4570,1300,4570,1286C4570,1273,4577,1259,4586,1256C4599,1251,4601,1241,4597,1206C4591,1164,4593,1159,4637,1111L4683,1060L4750,1060C4813,1060,4818,1062,4850,1095C4889,1135,4900,1187,4902,1345C4903,1395,4905,1418,4907,1397C4909,1377,4915,1362,4921,1365C4926,1369,4930,1453,4930,1561C4930,1763,4930,1765,4982,1745C4993,1741,5000,1745,5003,1757C5006,1767,5006,1757,5003,1735C4999,1705,5002,1690,5014,1681C5028,1669,5030,1637,5030,1456C5030,1181,5034,1155,5076,1105C5109,1065,5110,1065,5179,1065C5238,1065,5252,1068,5274,1089C5328,1140,5333,1167,5337,1403C5339,1541,5337,1627,5330,1640C5322,1655,5324,1661,5340,1670C5351,1676,5360,1691,5360,1704C5360,1723,5370,1733,5405,1750C5430,1762,5453,1776,5456,1782C5474,1810,5480,1745,5480,1527C5480,1302,5491,1161,5511,1136C5568,1064,5564,1066,5636,1062C5705,1058,5705,1058,5743,1097C5764,1119,5789,1159,5799,1186C5825,1254,5843,1263,5877,1224C5928,1167,6082,1060,6114,1060C6121,1060,6144,1053,6165,1044L6202,1029L6180,1005C6155,978,6105,963,6087,977C6033,1018,5846,1016,5784,974C5765,961,5744,950,5737,950C5730,950,5716,943,5706,935C5678,914,5655,916,5602,947L5555,975L5080,975C4662,975,4600,973,4560,958C4535,949,4493,939,4465,935C4426,930,4408,921,4383,893C4365,874,4350,852,4350,845C4350,830,4324,824,4216,816C4179,813,4143,807,4136,802C4130,797,4106,790,4084,786C4052,782,4037,784,4018,799C3998,815,3980,818,3895,815C3840,813,3773,806,3747,800C3707,789,3696,790,3682,802C3656,824,3493,826,3414,804C3355,788,3348,788,3316,804C3272,825,3160,826,3160,806C3160,797,3143,791,3108,787C3066,783,3050,785,3028,801C3013,811,2996,820,2990,820C2984,820,2952,845,2920,875C2853,940,2821,949,2729,931C2682,921,2665,921,2654,931C2644,939,2617,941,2570,937C2509,932,2492,926,2440,889C2407,866,2378,840,2375,830C2372,820,2360,810,2350,807C2338,804,2330,793,2330,781C2330,769,2323,748,2314,735C2302,716,2299,692,2302,633C2307,537,2326,493,2400,418C2448,369,2462,360,2514,350C2546,343,2589,341,2609,345C2629,348,2692,355,2750,359C2808,364,2869,372,2886,378C2907,384,2921,385,2928,378C2936,370,2978,368,3070,372C3096,373,3195,354,3243,340C3265,333,3278,336,3305,354C3334,374,3345,376,3382,369C3447,357,3492,359,3524,375C3550,389,3557,389,3594,375C3647,355,3853,359,3887,381C3907,393,3913,393,3932,380C3945,373,3984,365,4020,364C4056,363,4102,357,4122,352C4145,346,4206,346,4293,352L4428,362L4525,331L4621,300L5086,300C5476,300,5556,302,5587,315C5632,334,5664,334,5680,315C5686,307,5702,298,5713,294C5725,291,5744,280,5755,270C5790,238,5874,211,5941,210C5994,209,6015,214,6064,239C6096,256,6131,270,6141,270C6151,270,6186,256,6217,238C6268,210,6285,206,6355,206C6430,205,6438,207,6481,238C6507,255,6537,270,6549,270C6561,270,6600,256,6637,240C6749,189,6849,204,6971,290C7002,313,7020,309,7054,271C7064,260,7091,241,7114,228C7149,209,7168,206,7247,208C7304,209,7349,216,7367,225C7382,233,7400,240,7406,240C7412,240,7437,257,7461,278C7538,344,7533,342,7578,326C7623,310,7665,306,7762,308C7823,310,7834,314,7895,355C7981,412,8011,420,8145,420C8274,420,8328,434,8399,485C8450,522,8530,621,8530,647C8530,655,8538,675,8547,693C8563,723,8564,782,8562,1485C8559,2229,8558,2246,8537,2312C8504,2419,8387,2543,8310,2555C8291,2558,8250,2567,8220,2575C8174,2587,7966,2590,6915,2590C5645,2591,5525,2592,5514,2603C5502,2615,5520,2640,5540,2640C5575,2640,5641,2689,5737,2787C5825,2876,5950,3029,5950,3047C5950,3052,5962,3073,5977,3095C6011,3144,6040,3200,6040,3216C6040,3222,6049,3237,6059,3249C6070,3262,6081,3277,6083,3283C6086,3292,6091,3292,6100,3283C6110,3273,6110,3265,6100,3240C6090,3216,6090,3201,6099,3170C6105,3148,6115,3128,6119,3125C6128,3120,6178,3215,6213,3300C6237,3359,6253,3527,6247,3646C6239,3784,6225,3879,6211,3893C6205,3899,6200,3912,6200,3922C6200,3931,6194,3954,6186,3972C6178,3990,6161,4032,6148,4065C6136,4098,6118,4139,6108,4155C6098,4172,6086,4195,6080,4208C6065,4243,5961,4382,5931,4407C5913,4422,5891,4429,5861,4430C5825,4430,5812,4424,5784,4396C5754,4366,5750,4356,5750,4310C5750,4273,5742,4240,5721,4196C5696,4146,5683,4130,5643,4108C5542,4052,5516,4008,5540,3936C5555,3890,5609,3855,5651,3864C5734,3880,5839,3956,5865,4017C5876,4042,5885,4050,5905,4050C5919,4050,5932,4044,5934,4038C5943,4004,5973,3913,5981,3895C5991,3871,6008,3805,6022,3730C6027,3700,6030,3619,6027,3550C6023,3413,6010,3358,5947,3220C5929,3179,5838,3027,5815,3001C5743,2914,5634,2797,5607,2777C5572,2751,5513,2720,5497,2720C5492,2720,5474,2714,5457,2706C5365,2666,5162,2643,5040,2659C4933,2674,4856,2690,4846,2701C4840,2706,4829,2710,4821,2710C4794,2710,4657,2783,4584,2836C4456,2930,4342,3065,4296,3180C4286,3205,4271,3239,4264,3257C4256,3274,4250,3299,4250,3313C4250,3344,4236,3355,4222,3337C4207,3319,4222,2863,4238,2833C4245,2821,4250,2802,4250,2791C4250,2758,4310,2649,4354,2602C4377,2578,4418,2546,4445,2532L4495,2505L6370,2500C7428,2497,8256,2491,8270,2486C8329,2465,8389,2415,8426,2357C8475,2281,8478,2231,8475,1470C8473,646,8476,676,8390,590C8318,518,8295,512,8099,518C7958,522,7942,521,7929,505C7921,495,7898,470,7878,449C7837,408,7825,404,7692,396C7613,391,7607,392,7586,415C7573,429,7556,440,7548,440C7540,440,7525,449,7514,461C7496,481,7496,482,7515,496C7525,504,7544,510,7557,510C7581,510,7581,511,7578,613L7575,715L7548,718C7494,724,7485,772,7536,784C7551,788,7574,802,7586,815C7608,838,7612,839,7712,833C7829,826,7872,807,7907,748L7927,714L8082,715C8197,715,8242,719,8254,729C8269,741,8270,811,8270,1492L8270,2242L8241,2271L8212,2300L6348,2300L4484,2300L4422,2324C4205,2409,4077,2583,4030,2854C4017,2932,4017,3003,4032,3183C4045,3350,4037,3382,4001,3308C3990,3283,3980,3257,3980,3249C3980,3241,3959,3193,3933,3142C3838,2954,3634,2781,3423,2710C3391,2699,3349,2690,3330,2690C3311,2690,3273,2683,3245,2674C3178,2654,2997,2654,2905,2675C2736,2713,2562,2804,2467,2903C2367,3008,2277,3176,2224,3355C2198,3443,2198,3769,2223,3855C2245,3925,2264,3971,2291,4020C2302,4039,2320,4074,2331,4097C2354,4144,2489,4283,2554,4327C2576,4342,2597,4357,2600,4360C2614,4376,2713,4429,2780,4458C2896,4507,2964,4520,3096,4520C3241,4519,3329,4499,3467,4434C3527,4406,3541,4405,3580,4425C3683,4478,3668,4591,3551,4642C3377,4717,3294,4733,3095,4734C2890,4734,2836,4723,2663,4648C2598,4620,2358,4456,2291,4394C2136,4251,2034,4051,1989,3805C1956,3620,1992,3287,2055,3196C2073,3172,2075,3134,2059,3124C2039,3112,1818,3236,1730,3309C1658,3369,1550,3485,1550,3503C1550,3506,1537,3537,1521,3572C1458,3708,1400,3932,1400,4042C1400,4105,1432,4254,1451,4276C1471,4300,1468,4375,1446,4399C1406,4443,1316,4447,1276,4407C1246,4377,1220,4308,1214,4240C1202,4120,1168,4112,1125,4218C1073,4346,1068,4362,1025,4525C996,4633,995,4640,1017,4640C1028,4640,1052,4629,1071,4615C1163,4548,1230,4524,1385,4501C1517,4481,1546,4479,1632,4489C1685,4495,1740,4504,1755,4510C1769,4515,1791,4520,1802,4520C1844,4520,2076,4619,2149,4667C2168,4680,2186,4690,2190,4690C2194,4690,2219,4673,2246,4651C2352,4568,2416,4557,2477,4614C2508,4642,2515,4655,2515,4688C2515,4738,2494,4763,2422,4798C2364,4826,2337,4856,2315,4921C2297,4971,2296,5019,2311,5071C2334,5145,2282,5213,2203,5213C2161,5213,2153,5209,2123,5174L2089,5135L2091,5008C2092,4937,2091,4878,2089,4877C2080,4870,1910,4790,1904,4790C1901,4790,1884,4784,1867,4776C1666,4688,1434,4676,1283,4746C1266,4753,1249,4760,1246,4760C1225,4760,1116,4842,1060,4900C988,4973,937,5045,887,5142C857,5201,855,5211,857,5306C859,5422,889,5547,942,5660C971,5721,1050,5840,1061,5840C1075,5840,1072,5893,1057,5915C1018,5973,1005,6034,1005,6160C1005,6274,1008,6292,1034,6358C1062,6431,1148,6575,1178,6598C1206,6619,1216,6612,1249,6546C1332,6378,1534,6243,1785,6187C1937,6153,2074,6147,2250,6165C2409,6181,2414,6181,2429,6163C2486,6094,2629,6023,2797,5981C2938,5945,2987,5954,3033,6020C3056,6052,3055,6085,3030,6126C3006,6164,2955,6186,2866,6195C2802,6202,2689,6245,2630,6284C2487,6378,2430,6492,2430,6681C2430,6791,2438,6806,2504,6825C2626,6860,2690,6912,2690,6974C2690,7012,2661,7054,2620,7075C2581,7095,2566,7094,2509,7065C2482,7052,2437,7034,2408,7025C2363,7012,2352,7012,2304,7026C2275,7034,2246,7048,2238,7057C2209,7093,2146,7130,2116,7130C2083,7129,2040,7099,2021,7063C2004,7029,2008,6986,2033,6950C2059,6912,2153,6844,2190,6836L2216,6831L2216,6673C2215,6522,2216,6512,2242,6455C2280,6371,2276,6370,2086,6376C1724,6389,1524,6484,1414,6695C1353,6813,1323,7058,1355,7179C1369,7232,1395,7294,1412,7314C1416,7320,1436,7346,1455,7372C1535,7479,1687,7570,1813,7586C1867,7593,1910,7621,1910,7649C1910,7678,2013,7824,2085,7896C2123,7935,2185,7988,2221,8013C2284,8057,2403,8120,2423,8120C2428,8120,2446,8126,2463,8134C2481,8142,2515,8153,2540,8159C2565,8164,2605,8174,2630,8180C2654,8186,2685,8188,2698,8185C2719,8180,2721,8175,2715,8152C2701,8103,2698,7926,2710,7870C2743,7711,2795,7599,2882,7505C3001,7374,3169,7289,3373,7255C3393,7252,3410,7244,3410,7238C3410,7231,3424,7197,3442,7162C3480,7087,3533,7040,3579,7040C3644,7040,3699,7112,3684,7176C3680,7192,3664,7225,3648,7249C3605,7314,3589,7385,3607,7435C3614,7456,3628,7483,3638,7493C3650,7506,3655,7529,3655,7566C3655,7614,3652,7623,3625,7645C3603,7663,3583,7669,3549,7670C3508,7670,3498,7666,3468,7632C3450,7612,3429,7579,3422,7560C3387,7466,3374,7460,3289,7498C3265,7508,3236,7520,3226,7524C3193,7536,3076,7617,3050,7647C3008,7694,2964,7771,2944,7835C2919,7913,2918,8155,2942,8240C2951,8270,2964,8322,2971,8355C2982,8408,2991,8422,3043,8473C3142,8568,3233,8613,3370,8636C3438,8647,3473,8648,3545,8639C3595,8633,3640,8624,3645,8620C3651,8616,3671,8607,3691,8601C3804,8565,3949,8427,4004,8305C4013,8283,4025,8256,4031,8245C4058,8184,4062,8106,4061,7559C4060,6967,4061,6976,4016,6840C3996,6778,3934,6618,3904,6550C3867,6468,3794,6328,3783,6318C3776,6312,3770,6303,3770,6298C3770,6278,3624,6096,3543,6016C3314,5791,3035,5651,2680,5586C2329,5521,1846,5549,1470,5654C1389,5677,1347,5675,1312,5645C1275,5614,1264,5572,1280,5525C1295,5481,1335,5457,1430,5435C1471,5426,1519,5414,1535,5408C1581,5393,1803,5359,1990,5339C2111,5326,2512,5333,2605,5349C2638,5355,2692,5365,2725,5370C2828,5388,2864,5396,2900,5408C2919,5414,2960,5426,2990,5435C3152,5482,3442,5627,3521,5702C3529,5709,3558,5733,3585,5754C3660,5813,3755,5907,3813,5980C3841,6016,3867,6047,3870,6050C3887,6065,4003,6249,4024,6294C4083,6423,4169,6422,4231,6291C4243,6266,4266,6229,4282,6209C4297,6189,4310,6169,4310,6165C4310,6149,4470,5952,4544,5877C4712,5706,4947,5551,5151,5474C5337,5405,5543,5362,5692,5360C5742,5360,5754,5364,5782,5389C5811,5415,5815,5425,5815,5468C5815,5507,5810,5524,5791,5544C5761,5576,5730,5582,5606,5578L5507,5575L5533,5544C5548,5526,5571,5509,5585,5506C5646,5491,5592,5470,5491,5470C5460,5470,5430,5474,5424,5479C5419,5484,5375,5498,5325,5510C5275,5523,5210,5547,5177,5566C5145,5585,5113,5600,5105,5600C5081,5600,5030,5635,5032,5649C5036,5671,5056,5673,5074,5654C5095,5634,5174,5638,5260,5664C5290,5674,5333,5686,5355,5692C5406,5705,5409,5707,5445,5729C5462,5740,5484,5749,5495,5749C5506,5750,5528,5766,5544,5785C5574,5821,5610,5832,5610,5805C5610,5785,5566,5740,5547,5740C5540,5740,5528,5728,5521,5713C5514,5697,5500,5669,5489,5648C5473,5617,5472,5610,5485,5600C5497,5590,5500,5591,5500,5603C5500,5612,5529,5634,5570,5656C5612,5678,5658,5713,5684,5741C5724,5786,5732,5790,5772,5790C5819,5790,6015,5817,6040,5826C6048,5830,6078,5838,6105,5845C6181,5865,6300,5909,6349,5936C6373,5949,6397,5960,6402,5960C6407,5960,6423,5968,6438,5979C6453,5989,6497,6018,6535,6044C6629,6105,6804,6275,6870,6370C6884,6389,6904,6415,6915,6428C6937,6453,6955,6486,6995,6568C7012,6604,7026,6620,7039,6620C7060,6620,7146,6510,7181,6437C7192,6414,7205,6388,7210,6379C7235,6331,7251,6226,7247,6138C7243,6037,7232,5986,7200,5925C7172,5871,7174,5858,7219,5806C7252,5769,7283,5711,7331,5605C7366,5525,7390,5411,7397,5284C7404,5157,7396,5145,7168,4928C7136,4896,7025,4822,6964,4791C6869,4743,6833,4731,6729,4714C6638,4700,6622,4700,6528,4716C6471,4725,6421,4736,6416,4741C6410,4746,6400,4750,6392,4750C6367,4750,6237,4817,6180,4859C6150,4881,6110,4907,6091,4915C6060,4929,6053,4929,6016,4915C5993,4906,5950,4875,5920,4846C5856,4785,5772,4732,5680,4693C5622,4670,5602,4666,5495,4666C5363,4665,5322,4676,5225,4735C5157,4776,5092,4777,5053,4737C5030,4714,5025,4701,5026,4660C5026,4633,5033,4604,5041,4594C5061,4570,5118,4536,5180,4510C5210,4498,5244,4484,5255,4479C5349,4440,5519,4429,5637,4455C5766,4484,5918,4558,6008,4635C6038,4660,6063,4680,6065,4680C6067,4680,6075,4674,6082,4668C6136,4616,6318,4529,6400,4516C6419,4513,6455,4506,6480,4501C6538,4488,6722,4488,6780,4501C6805,4506,6841,4513,6860,4516C6943,4530,7089,4600,7163,4662C7240,4726,7254,4702,7225,4555C7196,4407,7173,4327,7143,4270C7136,4256,7130,4241,7130,4236C7130,4231,7113,4202,7091,4171C7070,4140,7045,4099,7035,4081C7026,4063,6983,4013,6940,3971C6865,3897,6862,3891,6845,3820C6835,3779,6823,3741,6819,3736C6814,3730,6810,3719,6810,3711C6810,3692,6745,3562,6724,3539C6716,3531,6710,3520,6710,3515C6710,3500,6581,3360,6523,3312C6442,3245,6237,3129,6156,3105C6129,3097,6146,3084,6201,3069C6245,3057,6251,3058,6316,3089C6354,3108,6392,3126,6400,3131C6408,3136,6422,3143,6430,3146C6438,3149,6450,3154,6455,3156C6472,3163,6516,3194,6536,3213C6547,3223,6573,3245,6596,3263C6651,3307,6777,3454,6802,3504C6813,3527,6828,3552,6835,3560C6842,3568,6855,3597,6864,3624C6873,3651,6887,3682,6895,3693C6903,3705,6910,3724,6910,3735C6910,3754,6918,3773,6957,3842C6967,3860,7000,3903,7030,3937C7060,3970,7094,4015,7105,4036C7116,4058,7144,4103,7167,4137C7209,4202,7245,4288,7273,4395C7298,4487,7301,4523,7294,4595C7288,4651,7282,4667,7256,4695C7232,4721,7215,4729,7183,4731C7160,4733,7138,4731,7134,4727C7130,4723,7117,4720,7104,4720C7092,4720,7080,4717,7078,4713C7075,4705,7045,4689,6967,4654C6939,4642,6926,4640,6918,4648C6910,4656,6914,4662,6932,4669C6947,4674,6961,4684,6965,4689C6968,4695,6982,4700,6994,4700C7007,4700,7023,4707,7030,4715C7037,4723,7049,4730,7056,4730C7064,4730,7070,4734,7070,4739C7070,4744,7091,4761,7117,4776C7185,4815,7412,5048,7441,5107C7461,5148,7466,5173,7469,5275C7472,5401,7457,5518,7433,5558C7425,5571,7412,5607,7404,5638C7396,5669,7383,5701,7376,5710C7370,5718,7349,5756,7330,5794C7291,5873,7285,5944,7313,5997C7335,6038,7337,6270,7317,6310C7309,6324,7300,6351,7297,6370C7293,6389,7274,6438,7254,6478C7226,6533,7205,6561,7162,6596C7130,6622,7104,6646,7102,6651C7097,6665,7023,6662,6987,6646C6952,6632,6890,6576,6890,6560C6890,6554,6884,6550,6876,6550C6868,6550,6859,6537,6855,6521C6847,6483,6824,6462,6808,6478C6799,6487,6799,6490,6807,6490C6820,6490,6860,6554,6860,6575C6860,6582,6866,6590,6874,6593C6881,6596,6891,6611,6894,6626C6898,6642,6916,6686,6935,6725C6953,6763,6971,6809,6975,6825C6978,6842,6985,6875,6990,6899C7008,6979,7004,7099,6980,7190C6968,7237,6954,7279,6949,7284C6944,7290,6940,7301,6940,7310C6940,7319,6922,7345,6900,7369C6878,7392,6860,7416,6860,7421C6860,7439,6760,7538,6730,7550C6713,7557,6700,7566,6700,7571C6700,7576,6674,7592,6643,7606C6611,7621,6577,7637,6568,7641C6558,7646,6544,7650,6537,7650C6520,7650,6459,7681,6428,7706C6415,7716,6382,7759,6355,7800C6302,7879,6109,8080,6085,8080C6077,8080,6055,8094,6037,8110C6018,8127,6000,8140,5997,8140C5994,8140,5970,8150,5943,8162C5811,8221,5744,8240,5590,8259C5473,8274,5420,8295,5420,8325C5420,8332,5411,8349,5400,8362C5389,8374,5363,8410,5343,8441C5304,8499,5169,8630,5148,8630C5142,8630,5129,8636,5121,8644C5100,8663,4962,8706,4878,8721C4841,8727,4787,8729,4758,8726C4631,8713,4573,8703,4545,8688C4529,8679,4490,8660,4460,8645C4375,8603,4276,8516,4225,8440C4200,8403,4180,8367,4180,8362C4180,8350,4130,8300,4118,8300C4113,8300,4100,8320,4087,8344C4045,8427,3993,8495,3926,8555C3889,8588,3849,8620,3837,8625C3824,8631,3801,8645,3786,8658C3770,8670,3751,8680,3743,8680C3735,8680,3714,8686,3697,8694C3601,8734,3380,8752,3324,8724ZM4960,8623C5169,8554,5311,8403,5366,8193C5368,8184,5405,8181,5497,8181C5649,8181,5720,8166,5860,8108C6057,8025,6244,7853,6331,7671C6349,7635,6368,7602,6373,7599C6378,7595,6408,7590,6441,7586C6473,7583,6508,7576,6517,7572C6527,7567,6566,7548,6603,7530C6667,7499,6778,7404,6822,7341C6875,7266,6919,7138,6927,7035C6932,6976,6928,6951,6906,6885C6879,6805,6809,6657,6784,6629C6776,6621,6770,6609,6770,6603C6770,6597,6763,6587,6755,6580C6746,6573,6727,6549,6712,6526C6680,6480,6599,6389,6525,6318C6416,6213,6217,6102,6057,6057C6026,6048,5975,6033,5945,6024C5847,5996,5846,5998,5873,6157C5885,6231,5886,6262,5877,6314C5865,6387,5868,6394,5927,6424C6006,6465,6080,6554,6080,6610C6080,6630,6069,6652,6047,6677C6017,6709,6007,6713,5966,6713C5922,6713,5916,6710,5861,6653C5814,6604,5795,6591,5761,6585C5711,6577,5628,6587,5592,6606C5577,6614,5559,6620,5552,6620C5545,6620,5528,6627,5515,6636C5483,6657,5438,6647,5400,6608C5359,6567,5353,6536,5378,6486C5395,6450,5407,6441,5470,6416C5509,6400,5564,6385,5592,6382C5665,6375,5675,6356,5666,6232C5654,6076,5626,6003,5542,5909C5481,5842,5400,5793,5295,5760C5257,5748,5213,5732,5198,5724C5184,5716,5164,5710,5155,5710C5140,5710,4923,5834,4910,5850C4907,5853,4878,5877,4845,5902C4753,5972,4635,6095,4554,6205C4513,6260,4477,6310,4472,6315C4468,6321,4461,6332,4457,6340C4453,6348,4438,6375,4424,6400C4387,6464,4310,6618,4310,6629C4310,6633,4297,6666,4281,6701C4254,6763,4225,6852,4201,6953C4194,6985,4190,7181,4190,7576C4190,8181,4191,8203,4236,8288C4244,8303,4250,8319,4250,8323C4250,8338,4327,8435,4377,8483C4431,8535,4525,8596,4568,8606C4583,8610,4600,8616,4605,8621C4643,8650,4874,8652,4960,8623ZM3505,7462C3511,7458,3515,7408,3515,7349L3515,7243L3486,7272C3471,7288,3444,7308,3426,7317C3409,7325,3387,7341,3378,7350C3369,7360,3356,7370,3349,7372C3328,7379,3347,7396,3405,7424C3435,7439,3462,7455,3465,7461C3472,7472,3491,7473,3505,7462ZM3320,7385C3320,7370,3277,7373,3272,7388C3269,7398,3276,7401,3294,7398C3309,7396,3320,7391,3320,7385ZM2393,6940C2424,6940,2450,6937,2450,6933C2450,6928,2427,6896,2400,6861C2372,6825,2350,6788,2350,6779C2350,6732,2309,6756,2295,6810C2291,6824,2271,6858,2250,6886C2228,6915,2214,6941,2218,6945C2222,6948,2250,6949,2280,6945C2310,6942,2361,6939,2393,6940ZM4153,6781C4162,6765,4170,6744,4170,6734C4170,6725,4176,6709,4183,6701C4190,6692,4209,6654,4224,6615C4284,6464,4313,6400,4326,6389C4341,6377,4345,6340,4332,6340C4328,6340,4304,6360,4280,6385C4256,6410,4230,6430,4223,6430C4215,6430,4199,6436,4187,6444C4145,6471,4063,6454,3994,6403C3977,6390,3961,6380,3958,6380C3941,6380,3942,6417,3959,6454C3997,6535,4023,6596,4037,6635C4044,6657,4061,6698,4074,6725C4087,6753,4101,6783,4104,6793C4112,6819,4134,6814,4153,6781ZM5950,6583C5950,6578,5938,6564,5925,6551C5897,6525,5890,6542,5917,6572C5934,6590,5950,6596,5950,6583ZM5880,6515C5880,6507,5866,6485,5849,6465C5829,6443,5810,6404,5799,6363C5789,6327,5778,6295,5776,6293C5766,6283,5751,6302,5745,6333C5737,6368,5646,6465,5604,6480C5572,6493,5574,6509,5608,6509C5701,6509,5829,6516,5836,6523C5849,6536,5880,6531,5880,6515ZM2391,6426C2392,6420,2392,6411,2391,6407C2390,6402,2417,6364,2450,6321C2483,6278,2510,6240,2510,6237C2510,6226,2475,6229,2464,6240C2450,6254,2398,6262,2282,6267C2222,6269,2182,6275,2185,6281C2189,6286,2200,6290,2210,6290C2237,6290,2291,6339,2307,6380C2315,6399,2329,6422,2337,6431C2352,6449,2389,6445,2391,6426ZM6790,6429C6790,6423,6784,6412,6776,6404C6761,6389,6740,6385,6740,6397C6740,6407,6772,6440,6782,6440C6786,6440,6790,6435,6790,6429ZM1615,6370C1618,6365,1614,6360,1606,6360C1598,6360,1588,6365,1585,6370C1582,6376,1586,6380,1594,6380C1602,6380,1612,6376,1615,6370ZM3907,6295C3903,6287,3896,6280,3890,6280C3883,6280,3883,6286,3890,6301C3903,6324,3916,6320,3907,6295ZM4390,6263C4390,6250,4387,6250,4375,6260C4367,6267,4360,6279,4360,6287C4360,6300,4363,6300,4375,6290C4383,6283,4390,6271,4390,6263ZM6648,6268C6642,6252,6612,6234,6604,6242C6596,6251,6621,6279,6638,6280C6646,6280,6650,6275,6648,6268ZM5775,6232C5775,6201,5756,6204,5752,6236C5749,6254,5752,6261,5762,6258C5769,6255,5775,6244,5775,6232ZM6580,6212C6580,6207,6571,6195,6560,6185C6533,6161,6510,6179,6535,6204C6552,6221,6580,6226,6580,6212ZM2580,6195C2590,6182,2589,6180,2571,6180C2559,6180,2550,6186,2550,6195C2550,6203,2554,6210,2559,6210C2564,6210,2573,6203,2580,6195ZM4458,6172C4464,6154,4443,6158,4436,6176C4432,6186,4435,6190,4442,6188C4448,6186,4456,6178,4458,6172ZM5783,6119C5800,6025,5810,6002,5845,5976C5871,5956,5880,5941,5880,5921C5880,5889,5866,5880,5815,5880C5784,5880,5747,5868,5672,5833C5646,5821,5637,5820,5625,5830C5611,5841,5612,5845,5630,5862C5641,5872,5650,5886,5650,5893C5650,5900,5673,5950,5700,6005C5730,6065,5750,6118,5750,6138C5750,6187,5773,6174,5783,6119ZM6488,6133C6486,6122,6474,6114,6458,6112C6443,6110,6426,6102,6420,6094C6406,6078,6380,6075,6380,6090C6380,6096,6386,6100,6394,6100C6401,6100,6414,6107,6421,6116C6433,6131,6465,6148,6483,6149C6488,6150,6490,6142,6488,6133ZM4490,6119C4490,6101,4488,6100,4475,6110C4467,6117,4460,6126,4460,6131C4460,6136,4467,6140,4475,6140C4484,6140,4490,6131,4490,6119ZM6318,6038C6312,6022,6282,6004,6274,6013C6265,6022,6289,6050,6307,6050C6315,6050,6320,6045,6318,6038ZM6191,5990C6196,5990,6200,5986,6200,5980C6200,5975,6190,5970,6178,5970C6165,5969,6137,5961,6115,5950C6072,5929,6020,5924,6020,5940C6020,5945,6039,5955,6063,5962C6086,5969,6116,5980,6130,5987C6144,5994,6161,5998,6168,5995C6176,5992,6186,5990,6191,5990ZM3680,5981C3680,5968,3651,5946,3643,5953C3636,5961,3658,5990,3671,5990C3676,5990,3680,5986,3680,5981ZM4671,5913C4680,5903,4696,5890,4706,5883C4722,5873,4722,5871,4709,5871C4690,5870,4640,5907,4640,5921C4640,5935,4654,5932,4671,5913ZM4834,5785C4861,5758,4855,5753,4815,5772C4801,5778,4790,5789,4790,5797C4790,5817,4806,5813,4834,5785ZM4985,5672C4966,5668,4928,5698,4936,5711C4939,5716,4955,5710,4971,5697C4995,5680,4998,5674,4985,5672ZM3170,5620C3170,5615,3160,5610,3148,5610C3129,5610,3128,5612,3140,5620C3159,5633,3170,5633,3170,5620ZM2210,4935C2210,4917,2259,4820,2269,4820C2273,4820,2289,4801,2304,4778C2336,4729,2325,4715,2271,4735C2215,4756,2125,4761,2103,4745C2080,4727,2037,4725,2042,4743C2045,4749,2056,4756,2068,4758C2080,4760,2090,4767,2090,4774C2090,4781,2099,4795,2111,4806C2130,4823,2169,4897,2184,4943C2190,4963,2210,4957,2210,4935ZM6114,4784C6142,4770,6172,4753,6180,4746C6188,4739,6215,4723,6240,4711C6265,4699,6292,4685,6300,4680C6308,4675,6324,4668,6335,4664C6354,4657,6354,4656,6331,4652C6318,4650,6303,4653,6297,4659C6291,4665,6277,4670,6267,4670C6256,4670,6227,4684,6201,4702C6157,4733,6152,4734,6058,4733C6004,4732,5960,4733,5960,4736C5960,4755,5996,4790,6016,4790C6028,4790,6042,4795,6045,4800C6054,4814,6055,4813,6114,4784ZM2030,4720C2030,4715,2020,4710,2008,4710C1989,4710,1988,4712,2000,4720C2019,4733,2030,4733,2030,4720ZM5938,4709C5941,4692,5873,4650,5844,4650C5826,4651,5826,4651,5845,4662C5856,4669,5876,4686,5890,4702C5916,4731,5933,4734,5938,4709ZM5779,4614C5750,4579,5704,4573,5716,4605C5722,4620,5770,4640,5783,4633C5787,4630,5785,4622,5779,4614ZM5269,4606C5277,4596,5278,4590,5270,4585C5257,4577,5240,4588,5240,4606C5240,4624,5254,4624,5269,4606ZM6525,4610C6529,4604,6518,4600,6501,4600C6484,4600,6470,4605,6470,4610C6470,4616,6481,4620,6494,4620C6508,4620,6522,4616,6525,4610ZM1400,4601C1400,4588,1373,4580,1355,4586C1330,4596,1338,4610,1370,4610C1387,4610,1400,4606,1400,4601ZM1461,4595C1460,4580,1437,4583,1432,4598C1429,4607,1434,4611,1444,4608C1454,4607,1461,4601,1461,4595ZM6710,4600C6710,4594,6679,4590,6636,4590C6595,4590,6558,4595,6555,4600C6551,4606,6578,4610,6629,4610C6676,4610,6710,4606,6710,4600ZM2567,4463C2558,4454,2548,4449,2544,4452C2534,4462,2550,4480,2568,4480C2583,4480,2583,4479,2567,4463ZM5930,4270C5952,4247,5970,4223,5970,4215C5970,4207,5977,4197,5985,4193C5993,4188,6008,4161,6019,4132C6029,4103,6042,4074,6049,4067C6055,4061,6060,4049,6060,4040C6060,4017,6085,3951,6098,3938C6105,3931,6110,3908,6110,3886C6109,3848,6108,3846,6095,3864C6087,3875,6080,3893,6080,3905C6080,3916,6071,3933,6059,3943C6045,3955,6041,3967,6045,3981C6059,4023,5926,4106,5873,4091C5820,4075,5792,4058,5781,4034C5770,4009,5755,4003,5745,4020C5741,4026,5730,4028,5719,4025C5690,4015,5696,4035,5734,4067C5752,4084,5775,4118,5785,4144C5795,4170,5807,4193,5811,4196C5816,4199,5820,4210,5820,4221C5820,4231,5824,4248,5829,4258C5834,4267,5841,4283,5844,4293C5853,4322,5889,4312,5930,4270ZM2280,4205C2273,4197,2263,4190,2257,4190C2252,4190,2255,4199,2265,4210C2286,4233,2300,4229,2280,4205ZM3929,2859C3933,2829,3949,2777,3963,2743C3978,2709,3990,2672,3990,2662C3990,2637,4025,2566,4073,2496C4107,2445,4172,2376,4239,2318C4279,2283,4403,2230,4465,2220C4507,2213,5159,2208,6318,2204C7301,2201,8117,2198,8133,2196C8172,2192,8188,2175,8172,2150C8165,2138,8164,2129,8170,2125C8185,2116,8183,1475,8168,1434C8159,1408,8159,1383,8169,1323C8181,1242,8189,852,8178,835C8175,829,8127,824,8072,822C7980,819,7971,821,7944,843C7878,897,7832,910,7707,910C7641,910,7589,906,7585,900C7582,895,7565,890,7548,890C7526,890,7506,902,7467,940C7439,968,7411,990,7405,990C7399,990,7381,1004,7365,1020L7336,1050L7361,1050C7374,1050,7405,1064,7430,1080C7483,1115,7500,1116,7560,1089C7624,1058,7787,1051,7871,1074C7969,1102,8039,1148,8083,1213C8098,1236,8119,1262,8129,1271C8156,1296,8149,1464,8120,1495C8109,1507,8100,1520,8100,1524C8100,1540,8012,1618,7973,1639C7951,1650,7930,1666,7927,1674C7924,1682,7906,1693,7888,1698C7869,1703,7850,1716,7843,1731C7836,1744,7826,1754,7820,1753C7815,1751,7810,1754,7810,1759C7810,1774,7838,1777,7925,1772L8005,1768L8036,1801C8060,1827,8069,1847,8073,1884C8076,1912,8074,1943,8070,1955C8058,1986,7999,2040,7976,2040C7964,2040,7935,2047,7910,2056C7854,2076,7769,2069,7680,2038C7608,2012,7532,1967,7523,1944C7520,1936,7509,1925,7499,1919C7474,1906,7437,1926,7385,1979C7363,2001,7340,2020,7334,2020C7328,2020,7317,2027,7310,2035C7303,2044,7281,2050,7256,2050C7233,2050,7205,2057,7194,2065C7168,2084,7086,2085,7070,2065C7063,2057,7043,2050,7025,2050C6978,2050,6906,2015,6874,1976C6858,1957,6830,1925,6813,1904C6795,1882,6780,1859,6780,1853C6780,1846,6770,1840,6758,1840C6743,1840,6708,1868,6656,1920C6612,1964,6571,2000,6565,2000C6558,2000,6532,2011,6506,2025C6480,2039,6446,2050,6431,2050C6415,2050,6389,2057,6374,2065C6337,2084,6224,2084,6190,2065C6176,2057,6152,2051,6136,2050C6089,2050,5981,1990,5914,1928C5880,1896,5847,1870,5841,1870C5834,1870,5818,1894,5806,1923C5792,1953,5763,1994,5736,2018C5694,2056,5686,2060,5638,2060C5602,2060,5575,2053,5555,2040C5516,2014,5508,2015,5457,2047L5415,2075L5196,2077C4948,2079,4916,2072,4864,2004C4841,1975,4832,1970,4811,1975C4778,1983,4700,2030,4700,2041C4700,2046,4686,2050,4669,2050C4653,2050,4616,2057,4589,2066C4541,2082,4536,2082,4452,2060C4404,2047,4337,2022,4303,2003C4269,1985,4239,1970,4236,1970C4234,1970,4208,1990,4179,2015C4136,2051,4119,2060,4088,2060C4006,2060,3932,1993,3911,1900C3906,1875,3891,1831,3879,1803C3860,1756,3854,1750,3828,1750C3805,1750,3797,1756,3789,1779C3783,1795,3772,1811,3764,1814C3756,1817,3750,1830,3750,1843C3750,1903,3718,1973,3669,2021C3641,2048,3610,2070,3599,2070C3571,2070,3576,2093,3615,2140C3654,2187,3660,2228,3635,2276C3616,2313,3616,2374,3635,2390C3652,2404,3657,2510,3640,2510C3635,2510,3623,2527,3614,2548C3604,2568,3585,2595,3572,2608C3550,2629,3549,2633,3563,2653C3570,2665,3592,2684,3611,2695C3699,2746,3716,2758,3769,2801C3800,2827,3843,2866,3865,2889C3887,2912,3908,2926,3913,2921C3917,2917,3925,2888,3929,2859ZM4418,2855C4443,2830,4468,2810,4475,2810C4481,2810,4499,2797,4515,2780C4531,2764,4548,2750,4553,2750C4557,2750,4576,2739,4593,2726C4611,2713,4635,2699,4647,2696C4658,2692,4671,2683,4674,2675C4677,2667,4689,2660,4700,2660C4711,2660,4720,2656,4720,2651C4720,2646,4732,2639,4746,2636C4778,2628,4773,2608,4735,2598C4694,2587,4552,2596,4510,2612C4425,2643,4326,2798,4338,2878C4343,2912,4367,2905,4418,2855ZM1520,2640C1547,2626,1555,2582,1534,2559C1510,2533,1444,2533,1430,2559C1416,2585,1417,2623,1432,2638C1446,2652,1494,2654,1520,2640ZM3370,2636C3376,2628,3380,2611,3378,2598C3376,2579,3367,2574,3335,2570C3297,2565,3295,2563,3292,2529C3289,2494,3290,2493,3330,2486C3381,2478,3406,2491,3415,2530C3422,2564,3467,2593,3503,2588C3521,2586,3525,2578,3525,2545C3525,2510,3528,2505,3550,2502C3564,2500,3581,2493,3588,2488C3614,2466,3594,2405,3565,2417C3557,2419,3542,2417,3531,2410C3513,2401,3511,2392,3514,2342C3520,2264,3526,2252,3563,2248C3591,2245,3595,2241,3598,2213C3601,2184,3597,2178,3567,2164C3535,2149,3529,2149,3487,2165C3423,2189,3405,2232,3414,2335C3421,2409,3420,2410,3395,2420C3381,2425,3354,2426,3332,2422L3295,2414L3297,2292L3299,2170L3244,2170L3188,2170L3192,2292L3195,2414L3170,2420C3151,2424,3144,2433,3142,2458C3140,2481,3143,2490,3154,2490C3178,2490,3200,2520,3200,2553C3200,2587,3223,2615,3270,2637C3305,2653,3355,2653,3370,2636ZM992,2613C1000,2603,1012,2577,1018,2555C1042,2463,1081,2345,1091,2335C1104,2322,1130,2355,1130,2385C1130,2396,1144,2441,1160,2483C1177,2526,1190,2569,1190,2577C1190,2612,1221,2630,1280,2630C1318,2630,1339,2626,1342,2618C1344,2611,1345,2508,1345,2390L1344,2175L1301,2172C1277,2170,1253,2173,1249,2177C1244,2182,1244,2239,1249,2303C1263,2493,1247,2509,1196,2355C1177,2300,1159,2242,1155,2225C1146,2183,1132,2170,1100,2170C1059,2170,1040,2180,1040,2201C1040,2211,1027,2259,1011,2307C996,2356,980,2407,976,2421C971,2445,944,2467,933,2456C931,2454,934,2393,940,2320C947,2237,948,2184,942,2178C937,2173,913,2170,889,2172L845,2175L849,2395C851,2516,854,2618,857,2623C859,2627,887,2630,919,2630C962,2630,981,2625,992,2613ZM1834,2491C1844,2480,1850,2460,1848,2443C1845,2415,1844,2415,1788,2418C1742,2420,1727,2417,1711,2401C1683,2373,1675,2335,1690,2299C1708,2257,1733,2246,1797,2254L1851,2260L1848,2223C1845,2190,1840,2183,1806,2167C1771,2150,1761,2150,1726,2161C1639,2188,1603,2225,1586,2306C1578,2341,1602,2424,1629,2454C1676,2508,1799,2530,1834,2491ZM1970,2494C2008,2479,2012,2479,2029,2494C2057,2519,2097,2515,2104,2486C2115,2442,2094,2410,2054,2410C2043,2410,2025,2401,2015,2390C2000,2374,1998,2356,2001,2273L2005,2175L1955,2175L1905,2175L1902,2329C1900,2433,1903,2487,1911,2496C1925,2513,1921,2513,1970,2494ZM2362,2496C2460,2455,2489,2299,2416,2216C2370,2165,2307,2147,2243,2166C2161,2191,2118,2248,2118,2333C2119,2373,2126,2393,2151,2431C2169,2457,2198,2485,2214,2493C2254,2513,2318,2514,2362,2496ZM2725,2490C2740,2473,2741,2466,2731,2444C2720,2420,2717,2419,2665,2425C2618,2431,2609,2430,2603,2415C2595,2393,2619,2374,2671,2360C2716,2348,2755,2293,2746,2255C2730,2194,2675,2159,2590,2158C2533,2157,2500,2175,2500,2207C2500,2254,2513,2265,2548,2251C2591,2233,2645,2240,2645,2264C2645,2284,2640,2288,2571,2316C2507,2343,2485,2410,2524,2459C2565,2511,2689,2530,2725,2490ZM3013,2495C3032,2487,3062,2464,3079,2443C3107,2409,3110,2399,3110,2339C3110,2261,3093,2225,3041,2189C3014,2170,2993,2165,2945,2165C2836,2165,2780,2226,2780,2343C2780,2398,2784,2410,2811,2443C2863,2506,2940,2526,3013,2495ZM1516,2487C1522,2484,1526,2413,1525,2328L1525,2175L1475,2175L1425,2175L1429,2330C1431,2430,1436,2487,1443,2492C1456,2500,1501,2497,1516,2487ZM3406,2132C3422,2116,3447,2096,3462,2087C3493,2068,3491,2055,3453,2004C3439,1985,3430,1959,3430,1937C3430,1917,3427,1899,3423,1897C3413,1891,3372,1916,3317,1963C3262,2010,3186,2050,3155,2050C3125,2050,3080,2070,3080,2083C3080,2121,3161,2148,3174,2114C3182,2092,3278,2100,3295,2123C3307,2139,3344,2158,3366,2159C3373,2160,3391,2147,3406,2132ZM2105,2134C2158,2099,2114,2060,2022,2060C1975,2060,1972,2058,1868,1953C1805,1889,1760,1862,1760,1888C1760,1892,1736,1921,1708,1952C1656,2007,1603,2040,1548,2054C1514,2062,1513,2079,1543,2108C1564,2128,1570,2129,1601,2118C1620,2112,1645,2100,1657,2092C1675,2081,1697,2079,1752,2085C1792,2089,1864,2092,1912,2093C1993,2095,1999,2097,2020,2123C2044,2154,2070,2157,2105,2134ZM1067,2102C1096,2096,1118,2097,1140,2107C1190,2127,1233,2124,1259,2096L1281,2072L1255,2046C1241,2032,1226,2020,1222,2020C1218,2020,1190,1997,1161,1969C1113,1923,1105,1919,1095,1934C1088,1943,1077,1950,1071,1950C1064,1950,1052,1966,1044,1985C1030,2019,966,2070,937,2070C910,2070,910,2084,937,2102C965,2121,972,2121,1067,2102ZM2518,2099C2553,2081,2574,2078,2626,2083C2661,2085,2701,2095,2715,2104C2748,2126,2783,2124,2805,2100C2823,2080,2823,2079,2789,2050C2770,2034,2752,2021,2748,2020C2724,2019,2636,1951,2584,1893C2515,1817,2511,1817,2466,1893C2453,1916,2415,1960,2381,1991C2322,2045,2307,2070,2333,2070C2340,2070,2351,2075,2358,2082C2372,2096,2427,2117,2454,2119C2465,2119,2493,2110,2518,2099ZM1378,2093C1374,2071,1330,2062,1330,2083C1330,2102,1340,2110,1362,2110C1375,2110,1380,2104,1378,2093ZM964,1986L992,1963L992,1561C991,1141,992,1142,948,1119C921,1105,872,1118,859,1143C851,1157,847,1286,848,1564L848,1965L875,1987C908,2016,930,2016,964,1986ZM3626,1982C3634,1973,3645,1947,3651,1925C3657,1903,3666,1877,3671,1868C3676,1858,3680,1844,3680,1837C3680,1820,3718,1691,3729,1670C3734,1661,3741,1639,3744,1620C3748,1601,3755,1576,3759,1565C3772,1534,3800,1407,3800,1383C3800,1371,3805,1358,3810,1355C3828,1344,3848,1369,3855,1413C3859,1436,3868,1475,3875,1500C3882,1525,3896,1572,3905,1605C3914,1638,3933,1699,3946,1740C3959,1781,3976,1842,3985,1875C4009,1963,4016,1977,4044,1995C4079,2018,4120,2007,4148,1967C4174,1928,4174,1923,4157,1889C4149,1875,4126,1810,4106,1744C4085,1679,4065,1618,4061,1610C4056,1601,4049,1579,4045,1560C4041,1541,4034,1521,4030,1515C4026,1510,4019,1489,4016,1470C4012,1451,4005,1426,4000,1415C3996,1404,3975,1343,3955,1279C3912,1141,3893,1117,3825,1117C3768,1117,3738,1145,3715,1220C3706,1250,3695,1282,3690,1291C3685,1300,3678,1325,3674,1346C3671,1368,3664,1390,3660,1395C3656,1401,3649,1421,3645,1440C3641,1459,3634,1481,3630,1490C3625,1498,3612,1537,3601,1575C3589,1614,3572,1670,3563,1700C3553,1730,3542,1759,3538,1765C3534,1770,3530,1783,3530,1795C3529,1806,3521,1833,3510,1855C3481,1916,3484,1953,3522,1985C3558,2015,3602,2014,3626,1982ZM5701,1977C5711,1965,5720,1948,5720,1940C5720,1932,5720,1755,5721,1548C5721,1220,5719,1167,5705,1146C5677,1104,5625,1102,5586,1143C5568,1162,5567,1182,5568,1561C5568,1933,5570,1960,5587,1978C5623,2016,5669,2015,5701,1977ZM1533,1981C1625,1941,1698,1852,1719,1752C1725,1721,1730,1594,1730,1442C1730,1220,1728,1181,1714,1160C1676,1103,1633,1094,1595,1136L1570,1163L1570,1456C1570,1774,1569,1781,1511,1825C1473,1854,1386,1853,1344,1823C1279,1777,1276,1758,1283,1444L1290,1162L1259,1136C1242,1122,1223,1110,1217,1110C1186,1110,1163,1124,1147,1151C1132,1178,1130,1214,1130,1458C1130,1674,1133,1746,1145,1784C1195,1950,1383,2045,1533,1981ZM2267,1970C2337,1935,2386,1885,2422,1810C2431,1792,2436,1693,2438,1473L2441,1160L2416,1135C2402,1121,2382,1110,2371,1110C2342,1110,2302,1130,2295,1149C2291,1158,2289,1292,2290,1447C2291,1711,2290,1731,2271,1768C2236,1837,2157,1867,2086,1840C2072,1835,2047,1811,2030,1788L1999,1745L2001,1457L2003,1169L1978,1139C1945,1102,1907,1101,1875,1136L1850,1163L1850,1460C1850,1799,1853,1814,1925,1897C2017,2002,2147,2030,2267,1970ZM3108,1984C3311,1925,3449,1717,3424,1505C3408,1364,3314,1228,3191,1171C3166,1159,3136,1144,3125,1137C3114,1131,3061,1124,3007,1122C2924,1118,2901,1121,2847,1141C2739,1181,2641,1270,2586,1380C2577,1399,2564,1450,2558,1492C2531,1681,2601,1831,2766,1936C2864,1999,2994,2017,3108,1984ZM4645,1975C4705,1946,4769,1882,4800,1819C4820,1777,4821,1758,4822,1468L4824,1161L4795,1135C4773,1113,4761,1109,4736,1114C4680,1125,4671,1150,4668,1299L4665,1433L4527,1433C4451,1432,4385,1428,4381,1424C4377,1419,4377,1364,4382,1301C4392,1177,4384,1138,4348,1119C4319,1104,4262,1117,4249,1142C4242,1156,4238,1262,4239,1473C4241,1767,4242,1787,4262,1826C4293,1889,4339,1935,4404,1969C4481,2010,4566,2012,4645,1975ZM5438,1980C5452,1966,5460,1947,5460,1925C5460,1903,5452,1884,5438,1870C5412,1846,5414,1847,5325,1846L5255,1845L5254,1510C5253,1326,5252,1169,5251,1163C5249,1141,5211,1110,5186,1110C5173,1110,5151,1120,5136,1131L5109,1152L5111,1499L5112,1845L5039,1846C4945,1847,4948,1846,4922,1870C4893,1897,4893,1946,4922,1977C4943,2000,4946,2000,5180,2000C5404,2000,5417,1999,5438,1980ZM6399,1984C6517,1949,6623,1858,6681,1743C6713,1678,6714,1670,6715,1560C6715,1449,6714,1443,6680,1375C6630,1274,6544,1192,6447,1152C6381,1124,6360,1120,6280,1120C6188,1120,6163,1127,6062,1178C5985,1217,5883,1345,5858,1432C5843,1487,5843,1633,5858,1688C5893,1813,6025,1941,6164,1985C6222,2003,6337,2003,6399,1984ZM7234,1980C7291,1956,7365,1888,7392,1837C7419,1783,7431,1656,7428,1460C7427,1369,7426,1268,7425,1235C7425,1139,7391,1099,7326,1116C7271,1129,7269,1145,7271,1458C7272,1735,7272,1746,7251,1781C7195,1875,7062,1872,7004,1775C6988,1749,6987,1718,6989,1454L6991,1163L6960,1137C6919,1102,6895,1103,6859,1141L6830,1172L6830,1449C6830,1674,6833,1737,6846,1781C6895,1949,7083,2045,7234,1980ZM7985,1970C8002,1963,8008,1951,8013,1910C8019,1859,8009,1810,7991,1810C7986,1810,7975,1816,7968,1823C7951,1839,7851,1870,7814,1870C7775,1870,7716,1848,7691,1826C7664,1801,7655,1749,7672,1714C7684,1689,7721,1660,7760,1644C7768,1641,7790,1632,7808,1624C7826,1616,7847,1610,7855,1610C7867,1610,7920,1585,7944,1567C8035,1503,8064,1456,8064,1380C8063,1338,8057,1315,8037,1283C7985,1202,7928,1167,7816,1148C7729,1134,7580,1152,7538,1182C7512,1200,7510,1207,7510,1266C7510,1344,7524,1355,7574,1316C7609,1290,7665,1271,7736,1263C7781,1258,7882,1283,7900,1305C7906,1313,7912,1341,7912,1367C7912,1410,7908,1418,7875,1447C7855,1464,7824,1482,7807,1486C7790,1489,7769,1496,7760,1501C7752,1505,7725,1518,7700,1528C7569,1583,7520,1641,7520,1745C7520,1786,7526,1823,7536,1842C7569,1906,7646,1958,7740,1979C7788,1990,7949,1984,7985,1970ZM4907,1683C4904,1673,4902,1681,4902,1700C4902,1719,4904,1727,4907,1718C4909,1708,4909,1692,4907,1683ZM7156,1701C7163,1688,7174,1674,7181,1669C7191,1663,7193,1635,7191,1558C7186,1423,7187,1407,7202,1264C7214,1150,7217,1141,7253,1092C7273,1063,7290,1036,7290,1031C7290,1018,7264,1010,7223,1010C7184,1010,7122,995,7073,974C7056,966,7037,960,7031,960C7016,960,6939,1009,6922,1029C6911,1043,6909,1042,6904,1023C6900,1011,6890,998,6881,995C6872,991,6843,962,6817,929C6770,871,6740,854,6740,887C6740,896,6720,923,6695,947C6654,986,6645,990,6601,990C6492,990,6460,905,6458,602C6458,553,6449,537,6435,560C6431,566,6424,568,6419,564C6413,560,6415,551,6425,540C6445,517,6434,488,6406,492C6391,494,6384,503,6383,525C6381,542,6376,580,6371,610C6366,640,6364,713,6365,773C6368,868,6366,882,6350,890C6340,895,6326,916,6320,935C6314,954,6300,975,6289,980C6263,995,6265,1008,6295,1016C6309,1019,6325,1030,6330,1039C6338,1053,6341,1053,6351,1040C6359,1029,6363,1028,6367,1038C6369,1044,6386,1050,6404,1050C6459,1050,6576,1114,6649,1185C6716,1250,6750,1266,6750,1233C6751,1164,6816,1080,6888,1056C6931,1041,6935,1041,6967,1061C7051,1113,7070,1185,7066,1430C7064,1515,7067,1593,7072,1603C7078,1615,7077,1626,7068,1637C7057,1650,7059,1655,7078,1668C7090,1676,7100,1690,7100,1700C7100,1738,7137,1739,7156,1701ZM4140,1459C4140,1441,4136,1431,4130,1435C4125,1438,4120,1455,4120,1471C4120,1489,4124,1499,4130,1495C4136,1492,4140,1475,4140,1459ZM7574,1491C7578,1486,7601,1472,7628,1459C7654,1447,7683,1430,7692,1422C7701,1414,7723,1407,7740,1405C7803,1400,7779,1377,7698,1365C7641,1356,7586,1372,7548,1408C7522,1432,7511,1477,7527,1493C7536,1503,7568,1501,7574,1491ZM6243,939C6257,933,6272,918,6277,906C6282,894,6283,787,6280,660C6272,387,6269,395,6375,405C6438,411,6449,409,6473,390C6505,364,6508,332,6479,302C6460,281,6453,280,6362,286C6281,292,6260,297,6232,317C6166,367,6165,368,6162,645C6159,888,6159,897,6180,923C6204,953,6209,955,6243,939ZM6635,934L6660,918L6660,691C6660,467,6660,465,6684,435C6705,409,6715,405,6758,405C6797,405,6814,410,6834,429L6860,453L6862,683L6865,913L6891,933C6917,952,6919,952,6949,934L6980,916L6980,690C6980,440,6975,416,6910,352C6862,303,6822,286,6762,287C6695,289,6653,308,6607,359C6545,428,6545,427,6542,663C6540,784,6541,892,6544,904C6549,924,6579,947,6603,949C6607,950,6622,943,6635,934ZM6042,929C6085,918,6097,891,6081,847C6070,818,6068,817,5965,820C5904,821,5890,818,5854,795C5832,780,5799,747,5782,721C5739,659,5737,581,5776,514C5825,430,5898,395,5994,410C6058,420,6090,400,6090,348C6090,305,6056,289,5962,289C5892,289,5876,292,5824,320C5791,338,5754,362,5742,373C5702,410,5667,480,5654,549C5627,690,5689,827,5812,903C5867,937,5972,949,6042,929ZM7384,910C7440,872,7460,830,7460,752C7459,709,7454,678,7445,666C7425,640,7426,611,7448,587C7461,572,7465,550,7465,480C7465,392,7465,391,7430,355C7375,298,7353,290,7241,290L7141,290L7105,325L7070,361L7070,607C7070,837,7071,855,7090,886C7118,930,7149,940,7256,937C7334,935,7353,931,7384,910ZM2864,870C2869,865,2867,833,2861,795C2854,759,2852,725,2855,721C2861,710,2900,719,2900,732C2900,737,2924,740,2953,738C3004,735,3006,734,3028,690C3047,652,3050,630,3050,537L3050,429L3003,432L2955,435L2955,537C2955,627,2953,641,2935,654C2909,674,2896,674,2878,653C2855,626,2852,599,2860,523C2869,440,2861,428,2806,432L2765,435L2762,650C2760,845,2761,866,2777,878C2795,891,2846,886,2864,870ZM4502,863C4524,843,4525,812,4503,788C4481,763,4448,765,4421,793C4373,845,4449,911,4502,863ZM5608,795C5610,757,5608,710,5605,692L5599,660L5085,660C4591,661,4570,662,4560,680C4546,706,4547,843,4562,858C4570,866,4710,869,5089,867L5605,865L5608,795ZM2693,843C2709,824,2713,808,2711,776C2710,759,2704,758,2637,764L2564,771L2527,735C2434,644,2510,483,2629,519C2703,541,2723,531,2713,477C2705,435,2684,425,2600,425C2533,425,2518,429,2482,452C2401,506,2371,577,2385,680C2393,737,2447,808,2509,840C2558,866,2670,868,2693,843ZM3318,721C3350,699,3383,624,3378,588C3375,566,3370,565,3283,562C3186,559,3176,553,3204,515C3215,499,3226,498,3283,503C3335,508,3349,506,3354,494C3375,439,3289,401,3201,427C3128,448,3105,485,3105,581C3105,644,3109,661,3128,686C3179,751,3256,766,3318,721ZM3661,722C3693,694,3693,691,3702,570C3706,503,3707,444,3704,439C3701,434,3679,430,3654,430L3610,430L3610,532C3610,612,3607,637,3593,652C3572,676,3555,675,3530,648C3510,627,3509,616,3512,530L3515,435L3465,435L3415,435L3417,580C3418,660,3419,728,3420,733C3420,745,3495,741,3507,729C3516,720,3527,721,3552,733C3599,757,3625,754,3661,722ZM3859,724C3872,713,3877,713,3893,728C3922,754,3994,749,4019,719C4045,688,4050,656,4047,535L4045,435L4000,435L3955,435L3955,525C3954,643,3953,647,3930,660C3915,668,3904,667,3884,654C3859,637,3858,634,3860,546C3861,496,3862,449,3861,443C3860,435,3844,430,3815,430C3786,430,3770,434,3769,443C3766,514,3769,731,3774,739C3782,752,3840,742,3859,724ZM4296,734C4318,724,4336,705,4344,685C4360,649,4369,462,4357,443C4348,428,4302,426,4281,439C4273,444,4254,442,4234,434C4186,414,4166,416,4130,446C4102,470,4099,477,4102,523C4105,569,4109,577,4139,597C4159,610,4188,620,4209,620C4258,620,4278,634,4264,657C4249,682,4218,684,4180,665C4137,643,4118,652,4122,692C4124,720,4131,727,4160,737C4209,754,4256,753,4296,734ZM4493,727C4508,716,4510,698,4508,575L4505,435L4465,435L4425,435L4424,575C4424,652,4426,721,4428,728C4433,744,4471,744,4493,727ZM6064,718C6080,709,6082,698,6078,615C6073,499,6067,490,5989,490C5936,490,5926,493,5894,523C5848,565,5838,627,5870,678C5881,696,5896,712,5903,714C5909,716,5929,722,5945,727C5977,738,6034,733,6064,718ZM2640,625C2640,617,2636,610,2631,610C2618,610,2609,626,2617,634C2628,645,2640,640,2640,625ZM5594,585C5597,574,5600,527,5600,480L5600,395L5083,396L4565,397L4562,490C4561,540,4564,587,4569,594C4576,602,4715,605,5084,605C5581,605,5589,605,5594,585Z" fill="rgb(216,191,216)" stroke="none" stroke-width="1"/><path id="eyarop7ra324" d="M4961,8055C4924,8012,4927,7982,4972,7933C4989,7916,4999,7897,4996,7891C4991,7884,4932,7880,4825,7880C4667,7880,4661,7879,4646,7858C4637,7846,4630,7825,4630,7813C4630,7800,4627,7790,4622,7790C4618,7790,4600,7777,4582,7761L4550,7731L4550,7586L4550,7442L4581,7416C4598,7402,4615,7390,4620,7390C4624,7390,4631,7374,4634,7355C4643,7307,4668,7299,4789,7302C4846,7304,4885,7301,4885,7295C4885,7290,4875,7287,4863,7288C4849,7290,4831,7279,4809,7255C4782,7226,4771,7220,4750,7225C4725,7230,4694,7222,4660,7201C4652,7195,4633,7189,4619,7186C4605,7183,4576,7165,4556,7147C4525,7118,4520,7107,4520,7070C4520,7043,4526,7019,4538,7007C4549,6994,4555,6970,4556,6931C4557,6877,4571,6832,4588,6829C4623,6822,5440,6825,5458,6831C5478,6839,5480,6846,5480,6906C5480,6957,5485,6978,5500,6997C5513,7014,5520,7038,5520,7068C5520,7108,5515,7117,5478,7152C5455,7173,5429,7190,5419,7190C5409,7190,5383,7199,5361,7210C5339,7222,5307,7230,5287,7228C5258,7226,5247,7232,5225,7258C5206,7281,5189,7290,5167,7291L5135,7293L5170,7299C5189,7303,5242,7304,5286,7302C5359,7298,5370,7300,5389,7319C5400,7330,5410,7350,5410,7363C5411,7377,5423,7392,5443,7405L5475,7425L5478,7585L5481,7744L5454,7765C5440,7776,5418,7806,5406,7830C5392,7860,5376,7877,5357,7883C5319,7895,5240,7883,5240,7865C5240,7846,5254,7839,5308,7832L5355,7825L5364,7708C5369,7640,5369,7540,5364,7468L5355,7345L5028,7342C4741,7340,4700,7342,4686,7356C4672,7369,4670,7404,4670,7589C4670,7780,4672,7809,4687,7821C4699,7832,4760,7836,4939,7840C5153,7845,5175,7847,5178,7863C5181,7878,5173,7880,5116,7880C5080,7880,5048,7885,5044,7891C5041,7897,5049,7914,5063,7928C5118,7987,5120,8021,5072,8065C5034,8101,4998,8097,4961,8055ZM5058,7998C5061,7976,5056,7969,5036,7964C5009,7958,4980,7973,4980,7994C4980,8015,5004,8031,5030,8028C5049,8026,5056,8018,5058,7998ZM4640,7592C4640,7471,4632,7423,4616,7449C4606,7464,4605,7704,4614,7719C4632,7748,4640,7709,4640,7592ZM5442,7693C5448,7658,5443,7470,5436,7463C5418,7444,5410,7483,5410,7596C5410,7694,5413,7720,5424,7720C5431,7720,5440,7708,5442,7693ZM5059,7301C5070,7294,5069,7291,5054,7287C5037,7282,4993,7284,4980,7290C4975,7292,5019,7307,5035,7309C5041,7309,5051,7306,5059,7301ZM5173,7235C5171,7230,5141,7223,5105,7220C4988,7211,5027,7195,5179,7190L5323,7185L5335,7150C5347,7115,5372,7099,5385,7119C5388,7125,5401,7130,5412,7130C5470,7130,5494,7038,5445,7006C5412,6984,5401,6986,5390,7016C5383,7035,5374,7041,5357,7038C5336,7035,5335,7031,5339,6962C5342,6885,5333,6860,5299,6860C5271,6860,5261,6896,5265,6981C5270,7105,5280,7100,5020,7100C4856,7100,4799,7097,4793,7088C4789,7081,4787,7036,4788,6988C4792,6882,4782,6858,4737,6862L4705,6865L4702,7014C4700,7113,4703,7167,4711,7176C4719,7185,4754,7190,4828,7192C4891,7194,4935,7199,4935,7205C4935,7211,4918,7216,4898,7218C4873,7220,4860,7226,4860,7236C4860,7248,4885,7250,5018,7248C5116,7246,5174,7241,5173,7235ZM4665,7109C4675,7077,4661,7000,4644,6993C4598,6976,4557,7045,4579,7103C4588,7125,4596,7130,4624,7130C4650,7130,4660,7125,4665,7109ZM5215,7037C5225,7013,5227,6984,5222,6934L5215,6865L5160,6862C5105,6859,5104,6860,5079,6898C5055,6935,5054,6938,5069,6969C5091,7015,5076,7035,5019,7035C4977,7035,4975,7034,4972,7003C4970,6985,4973,6963,4978,6954C4984,6944,4980,6925,4967,6899C4951,6866,4943,6859,4921,6862C4889,6866,4882,6894,4907,6922C4920,6937,4922,6944,4913,6947C4897,6953,4896,7002,4912,7018C4926,7032,4902,7044,4873,7038C4857,7035,4855,7024,4855,6950C4855,6881,4852,6865,4840,6865C4828,6865,4824,6883,4822,6951C4818,7074,4811,7070,5026,7070L5201,7070L5215,7037ZM4660,6935C4675,6917,4666,6874,4644,6866C4619,6856,4610,6868,4610,6911C4610,6942,4614,6950,4629,6950C4639,6950,4653,6943,4660,6935ZM5438,6914C5442,6876,5418,6851,5395,6870C5380,6883,5374,6931,5387,6944C5391,6948,5403,6950,5415,6948C5429,6946,5436,6936,5438,6914ZM5047,6877C5045,6870,5034,6864,5022,6862C5006,6859,5000,6864,5000,6878C5000,6888,5003,6900,5006,6903C5016,6913,5052,6890,5047,6877Z" fill="rgb(216,191,216)" stroke="none" stroke-width="1"/><path id="eyarop7ra325" d="M5127,7033C5106,7013,5128,6950,5155,6950C5177,6950,5193,6995,5181,7019C5170,7039,5140,7047,5127,7033Z" fill="rgb(216,191,216)" stroke="none" stroke-width="1"/><path id="eyarop7ra326" d="M5130,6905C5130,6897,5139,6890,5150,6890C5161,6890,5170,6897,5170,6905C5170,6913,5161,6920,5150,6920C5139,6920,5130,6913,5130,6905Z" fill="rgb(216,191,216)" stroke="none" stroke-width="1"/><path id="eyarop7ra327" d="M4838,7733C4809,7730,4792,7719,4765,7688C4734,7651,4730,7640,4730,7591C4730,7520,4758,7477,4820,7452C4856,7439,4896,7435,5020,7435C5204,7435,5247,7445,5284,7499C5334,7571,5327,7639,5264,7701L5229,7735L5052,7736C4955,7737,4858,7736,4838,7733ZM5217,7683C5260,7658,5270,7640,5270,7587C5270,7546,5265,7530,5246,7513C5224,7492,5214,7491,5054,7490C4961,7490,4871,7489,4853,7490C4830,7490,4812,7499,4791,7523C4740,7577,4753,7645,4822,7681C4858,7700,5185,7701,5217,7683Z" fill="rgb(216,191,216)" stroke="none" stroke-width="1"/><path id="eyarop7ra328" d="M4823,7639C4781,7612,4779,7575,4817,7543C4851,7513,4875,7514,4905,7546C4942,7586,4935,7618,4882,7648C4855,7663,4861,7664,4823,7639ZM4880,7584C4880,7563,4876,7559,4858,7562C4843,7564,4834,7573,4832,7588C4829,7606,4833,7610,4854,7610C4875,7610,4880,7605,4880,7584Z" fill="rgb(216,191,216)" stroke="none" stroke-width="1"/><path id="eyarop7ra329" d="M5148,7642C5095,7610,5123,7521,5187,7520C5219,7520,5240,7547,5240,7590C5240,7619,5234,7631,5215,7644C5185,7664,5182,7664,5148,7642ZM5210,7585C5210,7557,5189,7552,5170,7575C5155,7593,5165,7610,5191,7610C5205,7610,5210,7603,5210,7585Z" fill="rgb(216,191,216)" stroke="none" stroke-width="1"/><path id="eyarop7ra3210" d="M5741,7364C5729,7349,5720,7327,5720,7315C5720,7303,5709,7273,5695,7249C5641,7154,5639,7127,5682,7122C5705,7119,5711,7126,5735,7177C5750,7209,5778,7256,5796,7281C5835,7334,5837,7350,5812,7373C5786,7397,5765,7394,5741,7364Z" fill="rgb(216,191,216)" stroke="none" stroke-width="1"/><path id="eyarop7ra3211" d="M5915,7272C5910,7268,5900,7256,5894,7245C5887,7232,5872,7225,5853,7224C5806,7223,5795,7212,5818,7186C5829,7175,5840,7153,5844,7138C5852,7103,5882,7101,5904,7134C5917,7155,5924,7157,5949,7150C5965,7146,5981,7144,5984,7148C5996,7159,5990,7188,5975,7194C5966,7197,5960,7212,5960,7234C5960,7256,5954,7270,5944,7274C5925,7281,5927,7281,5915,7272Z" fill="rgb(216,191,216)" stroke="none" stroke-width="1"/><path id="eyarop7ra3212" d="M6097,7262C6087,7252,6080,7232,6080,7217C6080,7203,6064,7164,6044,7130C6002,7058,6000,7015,6040,7015C6059,7015,6070,7025,6090,7065C6104,7093,6130,7138,6148,7165C6182,7218,6188,7248,6168,7268C6150,7286,6115,7283,6097,7262Z" fill="rgb(216,191,216)" stroke="none" stroke-width="1"/><path id="eyarop7ra3213" d="M6293,7127C6289,7120,6287,7105,6289,7092C6290,7079,6285,7067,6276,7064C6267,7061,6260,7048,6260,7036C6260,7017,6270,7011,6320,6997C6353,6987,6389,6980,6399,6980C6422,6980,6435,6996,6420,7005C6400,7017,6410,7040,6436,7040C6457,7040,6461,7044,6458,7062C6453,7100,6311,7156,6293,7127ZM6384,7064C6408,7055,6403,7040,6378,7040C6342,7040,6310,7051,6316,7061C6322,7071,6361,7073,6384,7064Z" fill="rgb(216,191,216)" stroke="none" stroke-width="1"/><path id="eyarop7ra3214" d="M6538,7107C6489,7067,6514,7027,6574,7050C6611,7064,6620,7063,6620,7046C6620,7020,6542,6973,6458,6946C6446,6943,6440,6930,6440,6912C6440,6878,6463,6866,6542,6855C6596,6848,6617,6865,6581,6888L6559,6903L6581,6926C6594,6939,6609,6950,6615,6950C6632,6950,6710,7027,6710,7044C6710,7052,6694,7075,6673,7095C6629,7138,6581,7142,6538,7107Z" fill="rgb(216,191,216)" stroke="none" stroke-width="1"/><path id="eyarop7ra3215" d="M2236,2395C2211,2357,2215,2294,2245,2265C2258,2251,2279,2240,2290,2240C2327,2240,2360,2284,2360,2332C2360,2393,2339,2420,2291,2420C2261,2420,2249,2414,2236,2395Z" fill="rgb(216,191,216)" stroke="none" stroke-width="1"/><path id="eyarop7ra3216" d="M2891,2394C2858,2353,2863,2298,2901,2266C2940,2233,2955,2233,2991,2269C3046,2324,3017,2420,2945,2420C2921,2420,2906,2413,2891,2394Z" fill="rgb(216,191,216)" stroke="none" stroke-width="1"/><path id="eyarop7ra3217" d="M2900,1837C2783,1793,2700,1681,2700,1567C2700,1480,2724,1418,2781,1361C2850,1291,2888,1276,2990,1276C3058,1276,3084,1281,3117,1298C3172,1326,3224,1381,3252,1439C3279,1494,3288,1599,3270,1638C3235,1716,3225,1731,3191,1763C3132,1820,3085,1841,3006,1846C2961,1849,2922,1846,2900,1837ZM3016,1759C3019,1753,3041,1740,3064,1730C3122,1703,3158,1667,3175,1619C3196,1561,3194,1514,3170,1490C3159,1479,3150,1463,3150,1455C3150,1447,3141,1435,3130,1428C3119,1421,3110,1410,3110,1404C3110,1398,3084,1385,3051,1375C3000,1360,2987,1359,2954,1371C2932,1378,2905,1383,2892,1381C2875,1379,2867,1384,2863,1399C2860,1411,2854,1420,2850,1420C2845,1420,2838,1429,2835,1440C2832,1451,2823,1460,2815,1460C2796,1460,2790,1483,2790,1556C2790,1608,2794,1623,2810,1637C2821,1647,2830,1662,2830,1672C2830,1682,2837,1690,2845,1690C2860,1690,2880,1702,2950,1751C2979,1772,3006,1775,3016,1759Z" fill="rgb(216,191,216)" stroke="none" stroke-width="1"/><path id="eyarop7ra3218" d="M4465,1835C4413,1808,4386,1756,4380,1673C4377,1632,4379,1595,4384,1590C4390,1584,4456,1580,4532,1580L4670,1580L4670,1670L4670,1761L4632,1802C4599,1837,4587,1843,4544,1847C4512,1849,4484,1845,4465,1835ZM4545,1700C4540,1692,4534,1692,4528,1698C4522,1704,4521,1714,4525,1720C4530,1728,4536,1728,4542,1722C4548,1716,4549,1706,4545,1700Z" fill="rgb(216,191,216)" stroke="none" stroke-width="1"/><path id="eyarop7ra3219" d="M6210,1844C6118,1809,6051,1752,6018,1680C5990,1619,5987,1501,6014,1445C6038,1393,6104,1324,6155,1297C6216,1266,6348,1267,6413,1299C6464,1326,6502,1363,6540,1425C6561,1460,6565,1476,6564,1555C6564,1620,6559,1655,6546,1681C6526,1724,6449,1800,6401,1824C6368,1842,6239,1855,6210,1844ZM6325,1750C6335,1739,6351,1730,6360,1730C6369,1730,6400,1705,6428,1675C6468,1633,6480,1611,6485,1576C6494,1522,6485,1494,6460,1487C6446,1484,6440,1473,6440,1456C6440,1441,6434,1427,6426,1424C6418,1421,6414,1411,6417,1399C6422,1382,6417,1380,6377,1380C6352,1380,6328,1375,6324,1369C6315,1354,6237,1367,6188,1392C6166,1404,6143,1425,6137,1439C6130,1453,6119,1470,6111,1476C6102,1483,6096,1510,6094,1551C6092,1601,6095,1619,6110,1635C6120,1646,6131,1665,6135,1678C6138,1690,6146,1700,6151,1700C6156,1700,6170,1709,6182,1720C6194,1731,6216,1740,6231,1740C6246,1740,6260,1747,6264,1755C6272,1776,6304,1774,6325,1750Z" fill="rgb(216,191,216)" stroke="none" stroke-width="1"/><path id="eyarop7ra3220" d="M7186,822C7183,817,7180,786,7179,751C7176,684,7187,665,7225,675C7236,677,7264,680,7287,680C7321,680,7333,685,7346,705C7371,743,7367,780,7336,807C7314,825,7297,830,7250,830C7218,830,7189,826,7186,822Z" fill="rgb(216,191,216)" stroke="none" stroke-width="1"/><path id="eyarop7ra3221" d="M7184,559C7171,537,7179,417,7195,404C7219,386,7331,404,7352,430C7375,459,7375,509,7351,540C7334,561,7322,565,7262,568C7211,571,7190,569,7184,559Z" fill="rgb(216,191,216)" stroke="none" stroke-width="1"/><path id="eyarop7ra3222" d="M4698,733C4710,731,4728,731,4738,733C4747,736,4737,738,4715,737C4693,737,4685,735,4698,733Z" fill="rgb(216,191,216)" stroke="none" stroke-width="1"/><path id="eyarop7ra3223" d="M4960,729C4994,720,5219,726,5229,735C5231,738,5164,740,5079,739C4967,738,4935,736,4960,729Z" fill="rgb(216,191,216)" stroke="none" stroke-width="1"/><path id="eyarop7ra3224" d="M3210,660C3185,635,3185,623,3208,616C3230,609,3283,623,3287,637C3292,651,3263,680,3244,680C3236,680,3221,671,3210,660Z" fill="rgb(216,191,216)" stroke="none" stroke-width="1"/><path id="eyarop7ra3225" d="M4213,565C4179,551,4175,544,4186,516C4202,474,4289,516,4275,559C4268,583,4257,584,4213,565Z" fill="rgb(216,191,216)" stroke="none" stroke-width="1"/><path id="eyarop7ra3226" d="M4624,541C4617,534,4619,484,4627,477C4639,465,4658,491,4652,512C4648,530,4650,532,4671,527C4684,523,4704,520,4715,520C4731,519,4728,516,4705,505C4689,498,4677,491,4680,490C4683,489,4800,486,4940,484C5190,481,5246,486,5210,510C5194,521,5184,520,5393,526L5511,529L5509,495C5507,476,5509,460,5514,460C5519,460,5523,478,5524,500L5525,540L5360,541C5269,541,5068,542,4912,543C4756,544,4626,543,4624,541ZM4895,510C4824,507,4761,508,4756,512C4750,516,4809,519,4886,518L5025,516L4895,510ZM5163,513C5145,511,5115,511,5098,513C5080,515,5094,517,5130,517C5166,517,5180,515,5163,513Z" fill="rgb(216,191,216)" stroke="none" stroke-width="1"/><path id="eyarop7ra3227" d="M5250,461C5250,457,5274,455,5303,457C5380,464,5384,468,5313,469C5278,470,5250,466,5250,461Z" fill="rgb(216,191,216)" stroke="none" stroke-width="1"/><path id="eyarop7ra3228" d="M3680,8380C3680,8375,3663,8368,3643,8365C3622,8361,3578,8347,3544,8333L3484,8309L3435,8334C3400,8353,3372,8360,3330,8360C3278,8360,3270,8357,3237,8323C3217,8303,3200,8277,3200,8265C3200,8253,3193,8235,3185,8224C3160,8191,3166,8153,3199,8134C3215,8124,3234,8106,3241,8093C3252,8073,3250,8063,3226,8016C3171,7907,3193,7815,3282,7775C3321,7758,3325,7758,3381,7775C3414,7785,3445,7799,3451,7807C3465,7824,3509,7824,3529,7807C3538,7800,3570,7786,3600,7776C3651,7760,3658,7760,3693,7775C3756,7801,3774,7826,3778,7897C3781,7947,3778,7968,3761,8000C3735,8049,3734,8087,3758,8120C3772,8140,3775,8164,3774,8243C3772,8331,3770,8344,3749,8366C3727,8389,3680,8399,3680,8380ZM3659,8296C3672,8282,3694,8270,3709,8268C3731,8265,3735,8260,3738,8228C3741,8189,3716,8116,3701,8122C3696,8123,3676,8145,3656,8169C3636,8193,3601,8226,3579,8242C3557,8258,3540,8276,3542,8282C3545,8291,3598,8313,3631,8319C3634,8320,3647,8309,3659,8296ZM3432,8292C3443,8281,3419,8252,3375,8220C3364,8212,3340,8186,3321,8163C3288,8120,3260,8107,3260,8134C3260,8142,3265,8152,3270,8155C3286,8165,3282,8189,3259,8221C3237,8252,3240,8264,3280,8298C3297,8314,3415,8309,3432,8292ZM3596,8168C3687,8073,3685,8076,3661,8038C3629,7987,3513,7880,3490,7880C3466,7880,3337,8000,3314,8043C3300,8068,3301,8073,3319,8099C3330,8114,3371,8157,3410,8193C3479,8259,3481,8260,3508,8246C3523,8238,3562,8203,3596,8168ZM3430,7849C3430,7833,3390,7820,3341,7820C3258,7820,3226,7869,3250,7958C3257,7984,3265,8008,3267,8012C3272,8021,3430,7861,3430,7849ZM3728,7965C3744,7918,3738,7865,3714,7839C3701,7825,3683,7820,3643,7820C3556,7820,3523,7850,3574,7884C3610,7907,3669,7970,3676,7992C3685,8023,3714,8008,3728,7965Z" fill="rgb(216,191,216)" stroke="none" stroke-width="1"/><path id="eyarop7ra3229" d="M3438,8127C3398,8094,3399,8041,3441,8006C3481,7972,3505,7973,3541,8009C3579,8048,3580,8090,3543,8125C3509,8156,3474,8156,3438,8127ZM3511,8100C3534,8087,3537,8042,3515,8034C3507,8030,3489,8031,3475,8034C3445,8042,3441,8076,3468,8096C3489,8112,3487,8112,3511,8100Z" fill="rgb(216,191,216)" stroke="none" stroke-width="1"/><path id="eyarop7ra3230" d="M2061,7481C2013,7433,1994,7324,2026,7275C2049,7239,2112,7240,2137,7275C2147,7289,2163,7310,2173,7322C2192,7346,2194,7378,2180,7431C2168,7474,2154,7488,2113,7496C2090,7501,2077,7497,2061,7481ZM2125,7381C2124,7343,2119,7324,2103,7309C2075,7281,2060,7292,2060,7342C2060,7385,2093,7444,2114,7437C2120,7435,2125,7412,2125,7381Z" fill="rgb(216,191,216)" stroke="none" stroke-width="1"/><path id="eyarop7ra3231" d="M2246,7475C2211,7438,2196,7382,2204,7327C2213,7270,2237,7248,2286,7252C2317,7254,2326,7261,2342,7291C2352,7310,2363,7353,2366,7386C2373,7455,2356,7486,2303,7496C2277,7501,2267,7497,2246,7475ZM2325,7420C2334,7405,2300,7310,2283,7303C2249,7290,2237,7343,2260,7400C2269,7421,2279,7430,2296,7430C2308,7430,2322,7425,2325,7420Z" fill="rgb(216,191,216)" stroke="none" stroke-width="1"/><path id="eyarop7ra3232" d="M2570,7494C2542,7486,2512,7426,2505,7365C2499,7312,2501,7301,2520,7277C2537,7256,2550,7250,2579,7250C2627,7250,2652,7277,2676,7353C2693,7409,2693,7412,2675,7447C2651,7491,2617,7506,2570,7494ZM2624,7421C2631,7410,2603,7313,2591,7305C2586,7302,2575,7303,2566,7306C2531,7320,2561,7430,2600,7430C2610,7430,2621,7426,2624,7421Z" fill="rgb(216,191,216)" stroke="none" stroke-width="1"/><path id="eyarop7ra3233" d="M1815,7480C1809,7470,1800,7383,1797,7305C1795,7260,1797,7255,1818,7252C1830,7250,1842,7255,1844,7262C1859,7314,1881,7462,1877,7475C1870,7491,1825,7496,1815,7480Z" fill="rgb(216,191,216)" stroke="none" stroke-width="1"/><path id="eyarop7ra3234" d="M1922,7470C1915,7459,1912,7440,1915,7427C1919,7414,1917,7376,1911,7342C1900,7271,1904,7250,1930,7250C1951,7250,1956,7262,1965,7345C1969,7378,1976,7410,1982,7417C1987,7423,1990,7441,1988,7457C1984,7493,1942,7502,1922,7470Z" fill="rgb(216,191,216)" stroke="none" stroke-width="1"/><path id="eyarop7ra3235" d="M2419,7473C2418,7463,2418,7440,2420,7421C2421,7402,2414,7363,2404,7335C2384,7274,2390,7247,2422,7252C2442,7255,2446,7262,2450,7310C2453,7340,2461,7375,2468,7387C2475,7399,2480,7427,2480,7449C2480,7488,2478,7490,2450,7490C2429,7490,2420,7485,2419,7473Z" fill="rgb(216,191,216)" stroke="none" stroke-width="1"/><path id="eyarop7ra3236" d="M3152,7110C3146,7099,3140,7084,3140,7075C3140,7067,3039,6958,2916,6834C2733,6649,2690,6600,2682,6568C2651,6448,2755,6341,2874,6371C2914,6381,2945,6408,3146,6606C3280,6739,3380,6830,3391,6830C3418,6830,3451,6866,3443,6887C3440,6897,3387,6956,3326,7017C3209,7135,3179,7152,3152,7110ZM3255,7029C3259,7023,3254,7013,3245,7006C3230,6995,3234,6988,3284,6939C3315,6910,3340,6878,3340,6870C3340,6862,3297,6814,3243,6763L3147,6670L3122,6692C3062,6747,2980,6830,2980,6836C2980,6839,3024,6883,3077,6933C3143,6996,3181,7025,3197,7025C3210,7024,3220,7028,3220,7032C3220,7044,3248,7042,3255,7029ZM3023,6737C3032,6733,3043,6722,3047,6713C3050,6703,3059,6688,3067,6679C3080,6664,3071,6652,2988,6572C2849,6437,2847,6436,2811,6455C2743,6490,2744,6533,2816,6607C2866,6657,2871,6666,2860,6683C2845,6707,2863,6722,2897,6714C2914,6709,2926,6716,2946,6739C2969,6767,2975,6769,2989,6757C2998,6749,3013,6740,3023,6737Z" fill="rgb(216,191,216)" stroke="none" stroke-width="1"/><path id="eyarop7ra3237" d="M3054,6856C3043,6827,3055,6805,3083,6802C3104,6799,3112,6804,3119,6822C3124,6836,3124,6850,3118,6858C3104,6875,3061,6873,3054,6856Z" fill="rgb(216,191,216)" stroke="none" stroke-width="1"/><path id="eyarop7ra3238" d="M3174,6856C3171,6848,3174,6832,3180,6820C3202,6780,3273,6811,3257,6854C3249,6875,3182,6876,3174,6856Z" fill="rgb(216,191,216)" stroke="none" stroke-width="1"/><path id="eyarop7ra3239" d="M1311,6110C1281,6079,1250,6027,1250,6005C1250,5999,1261,5983,1274,5971C1294,5952,1305,5949,1335,5954C1375,5962,1378,5981,1340,5990C1308,5997,1306,6009,1331,6049C1350,6080,1352,6081,1369,6066C1379,6057,1395,6050,1404,6050C1417,6050,1420,6045,1415,6033C1403,6000,1398,5961,1404,5944C1410,5928,1412,5928,1429,5944C1445,5959,1448,5959,1460,5945C1479,5922,1490,5927,1490,5959C1490,5980,1496,5989,1512,5994C1542,6001,1558,5985,1542,5962C1510,5917,1519,5900,1578,5900C1614,5900,1617,5906,1593,5932C1577,5950,1577,5951,1599,5957C1617,5962,1620,5967,1615,5991C1609,6015,1612,6019,1636,6022C1672,6026,1678,6047,1646,6061C1627,6070,1614,6070,1591,6061C1565,6050,1559,6051,1540,6070C1521,6089,1511,6091,1473,6086C1432,6081,1425,6083,1400,6110C1365,6148,1349,6148,1311,6110ZM1515,6041C1522,6029,1486,6008,1476,6017C1473,6020,1470,6029,1470,6037C1470,6052,1506,6055,1515,6041Z" fill="rgb(216,191,216)" stroke="none" stroke-width="1"/><path id="eyarop7ra3240" d="M1686,5971C1642,5914,1632,5891,1646,5877C1650,5874,1662,5877,1674,5885C1704,5906,1719,5904,1730,5875C1740,5849,1754,5843,1766,5861C1769,5867,1779,5903,1787,5942C1799,6001,1799,6014,1788,6021C1756,6042,1731,6030,1686,5971Z" fill="rgb(216,191,216)" stroke="none" stroke-width="1"/><path id="eyarop7ra3241" d="M1820,5993C1820,5990,1828,5978,1837,5968C1852,5951,1853,5947,1838,5922C1813,5880,1811,5830,1833,5830C1841,5830,1858,5857,1873,5890C1899,5950,1922,5972,1942,5952C1949,5945,1946,5928,1931,5898C1920,5873,1910,5844,1910,5832C1910,5794,1940,5807,1961,5855C1986,5911,2000,5912,2000,5859C2000,5777,2038,5755,2079,5815C2109,5860,2122,5859,2118,5814C2113,5757,2135,5763,2163,5824C2188,5879,2201,5888,2229,5871C2240,5864,2239,5854,2220,5816C2208,5790,2201,5763,2204,5755C2215,5726,2237,5741,2261,5792C2284,5842,2313,5871,2325,5858C2335,5848,2335,5779,2326,5748C2320,5727,2322,5719,2334,5714C2353,5707,2460,5815,2463,5845C2466,5869,2430,5878,2418,5856C2405,5832,2385,5836,2369,5866C2353,5897,2323,5910,2269,5910C2247,5910,2206,5917,2178,5926L2128,5943L2090,5901C2069,5879,2049,5860,2046,5860C2042,5860,2040,5881,2042,5907L2045,5955L2005,5963C1983,5968,1953,5978,1938,5986C1912,6000,1820,6006,1820,5993Z" fill="rgb(216,191,216)" stroke="none" stroke-width="1"/><path id="eyarop7ra3242" d="M6899,5799C6882,5782,6879,5770,6883,5736C6887,5705,6884,5687,6872,5668C6838,5617,6816,5605,6747,5602L6683,5599L6665,5642C6643,5699,6622,5720,6589,5720C6558,5720,6528,5688,6509,5635C6495,5596,6475,5589,6424,5600C6404,5605,6382,5606,6376,5604C6370,5602,6349,5616,6330,5635C6303,5663,6296,5677,6298,5703C6305,5780,6214,5814,6164,5753C6134,5717,6134,5706,6166,5664C6189,5634,6198,5630,6237,5630C6293,5630,6319,5603,6320,5545C6320,5513,6326,5499,6350,5478C6388,5445,6388,5414,6350,5370C6330,5345,6321,5324,6320,5298C6320,5249,6282,5217,6235,5226C6208,5231,6197,5227,6171,5201C6154,5184,6140,5161,6140,5150C6140,5122,6198,5060,6224,5060C6262,5061,6292,5096,6298,5148C6304,5210,6329,5233,6399,5241C6430,5244,6463,5244,6472,5241C6482,5238,6502,5210,6517,5180C6545,5126,6546,5125,6593,5122C6646,5119,6680,5094,6680,5059C6680,5026,6719,4971,6747,4964C6782,4955,6818,4974,6837,5014C6852,5046,6852,5050,6833,5082C6815,5113,6810,5115,6755,5118C6666,5123,6636,5163,6679,5219C6695,5240,6705,5243,6758,5241C6798,5240,6821,5244,6827,5252C6831,5259,6843,5272,6854,5280C6871,5293,6874,5292,6895,5266C6925,5228,6977,5226,7014,5261C7051,5296,7048,5331,7005,5369C6961,5408,6946,5408,6908,5370C6871,5332,6858,5332,6826,5371C6791,5412,6793,5445,6830,5478C6854,5499,6860,5512,6860,5545C6860,5601,6908,5660,6953,5660C6992,5660,7040,5703,7040,5739C7040,5806,6945,5845,6899,5799ZM6980,5759C6994,5733,6976,5708,6946,5712C6922,5716,6913,5745,6930,5765C6947,5786,6967,5784,6980,5759ZM6248,5738C6266,5720,6262,5692,6241,5680C6215,5666,6212,5667,6200,5690C6180,5728,6219,5767,6248,5738ZM6615,5635C6615,5610,6611,5605,6590,5605C6574,5605,6564,5611,6562,5623C6556,5653,6568,5672,6592,5668C6610,5666,6615,5659,6615,5635ZM6431,5554C6448,5533,6431,5505,6400,5505C6369,5505,6352,5533,6369,5554C6377,5563,6390,5570,6400,5570C6410,5570,6423,5563,6431,5554ZM6695,5547C6703,5535,6710,5519,6710,5510C6710,5502,6722,5484,6735,5471C6768,5440,6768,5398,6735,5372C6721,5361,6710,5342,6710,5328C6710,5277,6689,5266,6598,5264C6553,5263,6507,5267,6498,5272C6489,5276,6478,5296,6474,5316C6470,5336,6454,5365,6439,5381C6423,5397,6410,5414,6410,5418C6410,5430,6442,5474,6457,5483C6464,5487,6470,5499,6470,5508C6470,5518,6477,5535,6485,5547C6498,5566,6509,5568,6590,5568C6670,5568,6682,5565,6695,5547ZM6810,5549C6819,5534,6818,5525,6809,5514C6783,5482,6732,5510,6745,5550C6754,5577,6796,5577,6810,5549ZM6805,5340C6820,5323,6821,5316,6812,5295C6799,5266,6778,5263,6756,5286C6736,5306,6736,5319,6757,5342C6777,5365,6783,5365,6805,5340ZM6430,5335C6444,5318,6435,5284,6413,5276C6396,5269,6360,5295,6360,5315C6360,5347,6408,5361,6430,5335ZM6978,5333C6996,5298,6969,5264,6938,5281C6920,5290,6913,5330,6927,5343C6939,5356,6969,5350,6978,5333ZM6618,5194C6620,5173,6616,5161,6606,5157C6580,5147,6560,5161,6560,5189C6560,5223,6568,5232,6595,5228C6609,5226,6616,5216,6618,5194ZM6255,5150C6255,5130,6249,5124,6229,5122C6201,5119,6186,5138,6197,5166C6200,5175,6212,5180,6229,5178C6249,5176,6255,5170,6255,5150ZM6795,5061C6803,5035,6791,5010,6769,5010C6747,5010,6728,5042,6736,5064C6745,5086,6787,5084,6795,5061Z" fill="rgb(216,191,216)" stroke="none" stroke-width="1"/><path id="eyarop7ra3243" d="M3717,5631C3676,5625,3670,5605,3709,5606C3737,5606,3903,5449,3915,5411C3923,5384,3901,5356,3879,5366C3871,5370,3816,5426,3755,5490C3695,5555,3638,5608,3629,5609C3620,5610,3607,5604,3601,5596C3591,5584,3593,5579,3611,5570C3648,5550,3880,5315,3880,5297C3880,5288,3871,5276,3859,5270C3841,5260,3826,5271,3713,5383C3627,5469,3586,5517,3582,5537C3576,5564,3572,5566,3553,5559C3538,5554,3530,5542,3530,5527C3530,5513,3523,5497,3515,5490C3507,5483,3500,5471,3500,5464C3500,5446,3529,5446,3536,5464C3540,5474,3548,5476,3560,5472C3592,5460,3791,5258,3788,5241C3786,5232,3772,5224,3757,5222C3732,5219,3714,5233,3629,5319C3574,5375,3523,5420,3515,5420C3489,5420,3497,5371,3524,5359C3545,5349,3547,5345,3537,5329C3522,5304,3536,5292,3557,5313C3572,5328,3576,5326,3612,5291C3633,5270,3650,5250,3650,5246C3650,5234,3593,5240,3574,5255C3564,5263,3542,5270,3525,5270C3509,5270,3484,5277,3470,5285C3410,5320,3283,5293,3228,5234C3181,5182,3170,5139,3171,5009C3173,4899,3175,4889,3196,4869C3220,4846,3246,4849,3257,4875C3260,4885,3254,4899,3241,4911C3230,4922,3220,4937,3220,4945C3220,4963,3255,4965,3264,4948C3308,4861,3314,4855,3362,4854C3416,4852,3444,4864,3420,4880C3412,4885,3396,4888,3385,4885C3356,4880,3200,5048,3200,5084C3200,5134,3237,5115,3336,5014C3388,4962,3430,4915,3430,4910C3430,4894,3479,4867,3495,4874C3514,4881,3514,4906,3496,4917C3461,4937,3240,5164,3240,5180C3240,5196,3258,5210,3280,5210C3284,5210,3342,5155,3409,5088C3506,4990,3530,4961,3530,4938C3530,4886,3575,4913,3598,4980C3614,5023,3615,5022,3578,5015C3547,5010,3538,5016,3431,5121C3329,5221,3319,5233,3333,5247C3360,5274,3396,5253,3492,5155C3543,5103,3593,5060,3602,5060C3629,5060,3624,5095,3593,5119C3568,5139,3568,5141,3585,5154C3598,5163,3600,5169,3591,5174C3584,5179,3573,5174,3565,5164C3553,5147,3550,5147,3519,5178C3501,5196,3483,5210,3478,5210C3474,5210,3470,5217,3470,5225C3470,5245,3518,5244,3544,5225C3555,5217,3578,5210,3594,5210C3611,5209,3636,5203,3650,5195C3687,5174,3779,5176,3826,5199C3872,5221,3930,5284,3930,5311C3930,5321,3935,5332,3940,5335C3954,5343,3953,5479,3939,5519C3931,5543,3931,5554,3940,5566C3951,5578,3949,5585,3930,5605C3901,5636,3840,5641,3840,5612C3840,5601,3851,5588,3865,5582C3890,5570,3900,5528,3881,5515C3870,5509,3800,5596,3800,5615C3800,5627,3776,5642,3762,5639C3758,5638,3738,5634,3717,5631Z" fill="rgb(216,191,216)" stroke="none" stroke-width="1"/><path id="eyarop7ra3244" d="M4607,5563C4598,5555,4598,5483,4606,5453C4620,5400,4660,5441,4660,5507C4660,5556,4631,5587,4607,5563Z" fill="rgb(216,191,216)" stroke="none" stroke-width="1"/><path id="eyarop7ra3245" d="M4347,5493C4322,5469,4393,5386,4433,5392C4466,5397,4463,5416,4422,5459C4385,5498,4362,5508,4347,5493Z" fill="rgb(216,191,216)" stroke="none" stroke-width="1"/><path id="eyarop7ra3246" d="M4839,5461C4817,5440,4800,5415,4800,5406C4800,5378,4842,5388,4882,5427C4912,5456,4917,5467,4909,5482C4895,5508,4882,5505,4839,5461Z" fill="rgb(216,191,216)" stroke="none" stroke-width="1"/><path id="eyarop7ra3247" d="M4500,5369C4442,5338,4370,5261,4370,5230C4370,5214,4363,5200,4355,5196C4343,5192,4340,5172,4340,5107C4340,5022,4349,4995,4400,4915C4459,4823,4494,4720,4472,4698C4465,4691,4460,4669,4460,4649C4460,4629,4453,4607,4445,4600C4437,4593,4430,4573,4430,4555C4430,4529,4437,4518,4459,4503C4476,4493,4499,4469,4512,4450L4536,4415L4626,4412C4705,4410,4718,4412,4738,4430C4750,4441,4760,4457,4760,4465C4760,4473,4774,4487,4790,4497C4817,4512,4820,4520,4820,4562C4820,4588,4816,4610,4811,4610C4799,4610,4787,4685,4788,4748C4790,4804,4799,4826,4868,4928C4918,5004,4922,5030,4883,5030C4861,5029,4851,5021,4836,4992C4778,4877,4762,4842,4756,4810C4748,4768,4728,4720,4718,4720C4702,4720,4700,4743,4710,4835C4717,4902,4717,4937,4709,4951C4695,4978,4676,4970,4670,4934C4666,4910,4660,4905,4635,4905C4611,4905,4602,4911,4591,4938C4575,4972,4551,4981,4549,4953C4548,4943,4547,4888,4546,4830C4546,4770,4541,4724,4535,4722C4530,4721,4524,4730,4522,4742C4515,4791,4477,4888,4437,4955C4398,5021,4396,5029,4395,5110L4394,5195L4437,5245C4517,5341,4631,5371,4731,5322C4819,5279,4855,5223,4875,5098C4882,5054,4906,5047,4916,5085C4927,5130,4909,5202,4874,5255C4837,5312,4787,5360,4767,5360C4760,5360,4745,5367,4734,5375C4705,5397,4546,5393,4500,5369ZM4665,4775L4665,4705L4635,4702C4598,4697,4580,4721,4580,4773C4580,4831,4595,4852,4633,4848L4665,4845L4665,4775ZM4545,4660C4548,4655,4547,4643,4543,4635C4535,4622,4531,4622,4516,4633C4505,4641,4500,4652,4504,4658C4513,4673,4537,4674,4545,4660ZM4670,4656C4670,4627,4657,4610,4636,4610C4609,4610,4590,4628,4590,4652C4590,4666,4598,4670,4630,4670C4658,4670,4670,4666,4670,4656ZM4755,4660C4759,4654,4756,4642,4749,4634C4738,4621,4735,4621,4722,4634C4714,4642,4711,4653,4714,4659C4723,4673,4747,4673,4755,4660ZM4767,4574C4778,4545,4742,4528,4682,4534C4639,4539,4628,4537,4623,4524C4616,4504,4636,4490,4673,4490C4690,4490,4700,4485,4700,4475C4700,4463,4686,4460,4631,4460C4560,4460,4539,4470,4560,4495C4576,4514,4566,4527,4530,4535C4496,4542,4486,4554,4494,4575C4498,4587,4525,4590,4630,4590C4742,4590,4762,4588,4767,4574Z" fill="rgb(216,191,216)" stroke="none" stroke-width="1"/><path id="eyarop7ra3248" d="M1086,5308C1077,5296,1070,5280,1070,5274C1070,5267,1057,5233,1041,5198C1014,5137,1013,5132,1029,5112C1042,5095,1057,5089,1099,5087C1163,5085,1176,5101,1130,5125C1091,5145,1092,5176,1132,5172C1168,5168,1178,5189,1150,5210C1131,5224,1129,5230,1139,5248C1149,5266,1160,5270,1200,5270C1241,5270,1250,5273,1250,5288C1250,5319,1228,5330,1164,5330C1110,5330,1099,5327,1086,5308Z" fill="rgb(216,191,216)" stroke="none" stroke-width="1"/><path id="eyarop7ra3249" d="M4677,5284C4668,5274,4689,5240,4704,5240C4720,5240,4751,5205,4775,5158C4795,5119,4816,5109,4826,5135C4834,5156,4797,5224,4758,5260C4727,5288,4691,5298,4677,5284Z" fill="rgb(216,191,216)" stroke="none" stroke-width="1"/><path id="eyarop7ra3250" d="M1437,5243C1434,5233,1429,5213,1426,5198C1419,5165,1404,5163,1376,5189C1348,5214,1270,5232,1253,5218C1228,5198,1240,5182,1285,5176C1348,5166,1343,5147,1278,5152C1231,5155,1225,5153,1225,5135C1225,5113,1253,5103,1318,5101C1358,5100,1360,5101,1348,5120C1337,5137,1338,5142,1350,5150C1358,5155,1373,5160,1383,5160C1405,5160,1406,5118,1385,5100C1376,5093,1370,5071,1370,5049C1370,5015,1373,5010,1394,5010C1419,5010,1430,5026,1430,5064C1430,5089,1447,5110,1468,5110C1478,5110,1480,5102,1475,5080C1467,5044,1477,5010,1495,5010C1503,5010,1524,5028,1541,5050C1597,5119,1620,5089,1567,5018C1552,4998,1549,4987,1557,4979C1573,4963,1603,4972,1610,4995C1617,5022,1643,5060,1654,5060C1659,5060,1660,5043,1656,5021C1651,4989,1654,4978,1674,4957C1704,4925,1737,4916,1773,4929C1808,4942,1817,4967,1796,4988C1784,5001,1778,5002,1768,4992C1761,4985,1746,4980,1733,4980C1700,4980,1702,5024,1737,5078C1770,5129,1807,5136,1812,5094C1814,5079,1822,5064,1830,5060C1904,5024,1925,5023,1937,5057C1940,5067,1952,5083,1962,5093C1984,5115,1982,5138,1958,5154C1938,5166,1903,5150,1908,5131C1909,5125,1911,5115,1913,5108C1914,5102,1907,5094,1898,5092C1885,5090,1880,5095,1880,5109C1880,5136,1841,5177,1806,5186C1786,5191,1771,5187,1750,5171C1716,5146,1700,5144,1700,5164C1700,5181,1654,5220,1635,5220C1628,5220,1606,5197,1585,5169C1536,5101,1514,5104,1518,5181C1521,5232,1520,5237,1495,5248C1459,5265,1442,5263,1437,5243Z" fill="rgb(216,191,216)" stroke="none" stroke-width="1"/><path id="eyarop7ra3251" d="M3435,4191C3397,4175,3352,4119,3345,4079C3338,4037,3346,3983,3363,3962C3371,3952,3350,3925,3279,3851C3227,3797,3178,3751,3170,3748C3162,3746,3147,3751,3136,3759C3108,3783,2989,3781,2961,3756C2941,3738,2940,3738,2876,3800C2812,3862,2811,3862,2813,3914C2815,3960,2812,3969,2786,3993C2695,4078,2566,3956,2646,3861C2669,3834,2678,3830,2723,3830C2772,3830,2778,3827,2833,3774C2864,3743,2890,3713,2890,3706C2890,3699,2883,3679,2874,3661C2864,3641,2860,3612,2862,3582L2865,3535L2770,3487L2675,3439L2638,3460C2617,3471,2583,3480,2559,3480C2524,3480,2512,3474,2484,3444C2456,3415,2450,3401,2450,3365C2450,3328,2455,3318,2490,3286C2521,3258,2538,3250,2569,3250C2631,3250,2690,3311,2690,3375C2690,3391,2697,3403,2708,3406C2717,3410,2739,3418,2757,3426C2774,3434,2793,3440,2799,3440C2805,3440,2810,3444,2810,3450C2810,3455,2828,3464,2849,3471C2887,3482,2890,3481,2930,3447C2953,3428,2986,3409,3005,3406C3043,3398,3050,3386,3050,3322C3050,3285,3044,3270,3024,3250C2972,3201,2972,3167,3023,3113C3076,3056,3140,3071,3179,3148C3197,3182,3183,3227,3145,3255C3122,3273,3109,3294,3101,3325C3085,3388,3087,3399,3114,3410C3127,3415,3141,3423,3144,3429C3156,3448,3185,3425,3323,3284C3459,3145,3460,3144,3460,3098C3460,3034,3496,2990,3549,2990C3591,2990,3633,3021,3649,3064C3674,3127,3607,3198,3535,3184C3501,3178,3497,3181,3355,3323C3275,3403,3210,3473,3210,3478C3210,3483,3217,3501,3225,3516C3244,3553,3244,3627,3225,3664C3217,3679,3210,3697,3210,3704C3210,3710,3252,3758,3304,3809L3398,3903L3444,3890C3556,3859,3650,3927,3650,4040C3650,4130,3584,4201,3501,4199C3476,4199,3446,4195,3435,4191ZM3552,4135C3597,4104,3613,4052,3592,4000C3578,3964,3533,3930,3499,3930C3447,3930,3390,3988,3390,4040C3390,4074,3417,4116,3452,4139C3494,4166,3508,4165,3552,4135ZM2756,3953C2774,3929,2773,3910,2753,3888C2733,3866,2712,3865,2688,3887C2667,3905,2664,3940,2682,3958C2700,3976,2741,3973,2756,3953ZM3126,3711C3148,3696,3173,3671,3183,3657C3223,3596,3187,3501,3110,3463C3071,3443,3060,3442,3025,3451C3001,3458,2970,3478,2948,3502C2915,3536,2910,3547,2910,3589C2910,3629,2915,3643,2943,3673C3006,3745,3064,3757,3126,3711ZM2611,3422C2656,3384,2628,3300,2570,3300C2512,3300,2484,3384,2529,3422C2542,3432,2560,3440,2570,3440C2580,3440,2598,3432,2611,3422ZM3131,3209C3149,3175,3128,3140,3090,3140C3068,3140,3057,3146,3049,3164C3033,3199,3052,3230,3090,3230C3110,3230,3123,3223,3131,3209ZM3590,3119C3606,3091,3595,3053,3569,3045C3544,3037,3500,3064,3500,3087C3500,3133,3570,3158,3590,3119Z" fill="rgb(216,191,216)" stroke="none" stroke-width="1"/><path id="eyarop7ra3252" d="M3490,4101C3490,4091,3503,4068,3519,4051C3546,4022,3550,4021,3558,4037C3570,4060,3563,4081,3536,4102C3508,4125,3490,4125,3490,4101Z" fill="rgb(216,191,216)" stroke="none" stroke-width="1"/><path id="eyarop7ra3253" d="M3044,3695C3036,3676,3054,3654,3083,3646C3096,3643,3110,3628,3117,3610C3125,3588,3134,3579,3147,3582C3179,3588,3172,3617,3125,3664C3077,3712,3053,3721,3044,3695Z" fill="rgb(216,191,216)" stroke="none" stroke-width="1"/><path id="eyarop7ra3254" d="M2570,3380C2570,3369,2577,3360,2585,3360C2602,3360,2603,3362,2594,3384C2585,3407,2570,3404,2570,3380Z" fill="rgb(216,191,216)" stroke="none" stroke-width="1"/><path id="eyarop7ra3255" d="M4817,4112C4807,4102,4800,4083,4800,4071C4800,4044,4758,4000,4732,4000C4722,4000,4705,4009,4695,4020C4669,4048,4649,4045,4612,4007C4575,3969,4572,3942,4600,3917C4611,3908,4620,3894,4620,3886C4620,3861,4579,3820,4555,3820C4527,3820,4500,3786,4500,3750C4500,3715,4527,3680,4554,3680C4582,3680,4620,3645,4620,3620C4620,3609,4611,3592,4600,3583C4570,3557,4575,3526,4615,3491C4657,3454,4660,3454,4693,3480C4734,3513,4790,3499,4790,3457C4790,3418,4817,3390,4856,3390C4904,3390,4927,3404,4935,3439C4946,3489,5013,3518,5040,3485C5060,3461,5096,3467,5124,3501C5155,3537,5155,3543,5133,3581C5117,3608,5117,3612,5133,3645C5145,3671,5158,3682,5181,3687C5219,3694,5242,3729,5238,3772C5235,3801,5230,3806,5191,3820C5136,3839,5118,3877,5144,3920C5167,3959,5164,3972,5127,4008C5089,4045,5070,4048,5045,4020C5022,3994,5006,3995,4970,4022C4951,4035,4940,4053,4940,4068C4940,4113,4923,4130,4876,4130C4847,4130,4828,4124,4817,4112ZM4924,3879C4986,3848,5014,3802,5008,3740C5004,3697,4997,3684,4965,3654C4944,3635,4916,3617,4903,3614C4848,3600,4784,3632,4748,3691C4707,3758,4740,3840,4825,3884C4864,3905,4875,3904,4924,3879Z" fill="rgb(216,191,216)" stroke="none" stroke-width="1"/><path id="eyarop7ra3256" d="M5370,3721C5365,3710,5360,3694,5360,3686C5360,3658,5315,3637,5271,3645C5234,3651,5230,3650,5215,3619C5201,3594,5200,3583,5210,3565C5231,3526,5219,3487,5182,3470C5152,3457,5149,3453,5152,3416C5155,3382,5159,3375,5183,3369C5233,3356,5243,3341,5236,3290C5232,3257,5234,3238,5246,3222C5263,3197,5302,3193,5320,3215C5327,3223,5340,3230,5350,3230C5370,3230,5400,3200,5400,3179C5400,3155,5422,3140,5455,3140C5492,3140,5510,3155,5510,3186C5510,3227,5537,3243,5593,3236C5636,3230,5646,3232,5666,3251C5695,3278,5696,3300,5670,3323C5636,3352,5648,3384,5702,3409C5723,3419,5736,3434,5738,3448C5742,3478,5715,3520,5692,3520C5682,3520,5663,3531,5651,3544C5629,3567,5629,3570,5644,3592C5668,3625,5664,3642,5626,3668C5593,3690,5592,3690,5557,3674C5523,3658,5520,3658,5496,3674C5482,3683,5470,3699,5470,3709C5470,3744,5388,3754,5370,3721ZM5514,3525C5546,3495,5550,3484,5550,3442C5550,3402,5545,3389,5523,3368C5476,3326,5438,3315,5400,3335C5311,3381,5294,3452,5356,3520C5388,3555,5398,3560,5435,3560C5471,3560,5484,3554,5514,3525Z" fill="rgb(216,191,216)" stroke="none" stroke-width="1"/><path id="eyarop7ra3257" d="M4948,3344C4928,3309,4927,3309,4876,3315C4828,3321,4823,3320,4810,3296C4800,3276,4799,3267,4808,3258C4829,3237,4821,3211,4790,3195C4730,3164,4730,3109,4791,3088C4823,3077,4827,3060,4805,3027C4792,3007,4792,3001,4806,2981C4820,2962,4829,2959,4872,2962C4923,2965,4931,2961,4944,2918C4948,2905,4960,2900,4985,2900C5016,2900,5023,2904,5031,2930C5044,2965,5067,2974,5104,2960C5153,2942,5194,2985,5171,3029C5154,3059,5157,3066,5195,3089C5242,3117,5242,3149,5194,3185C5161,3210,5158,3216,5164,3248C5172,3299,5150,3322,5100,3314C5066,3308,5061,3311,5041,3344C5010,3393,4977,3393,4948,3344ZM5056,3206C5098,3164,5101,3125,5065,3086C5018,3035,4972,3033,4923,3079C4906,3095,4900,3112,4900,3145C4900,3181,4905,3192,4931,3214C4974,3251,5014,3248,5056,3206Z" fill="rgb(216,191,216)" stroke="none" stroke-width="1"/><path id="eyarop7ra3258" d="M918,972C852,969,849,968,801,921C733,855,716,786,740,673C747,643,747,607,742,578C728,506,750,397,785,360C837,305,876,298,1086,302L1276,305L1305,332C1351,375,1384,385,1430,370C1486,351,1562,362,1604,393C1640,421,1674,428,1686,409C1689,403,1711,389,1734,379C1780,359,1822,364,1877,396C1909,415,1910,415,1952,393C2019,360,2042,358,2091,383C2151,414,2169,450,2179,562C2186,642,2191,661,2218,701C2263,768,2273,797,2260,834C2244,880,2221,900,2183,900C2162,900,2143,907,2133,920C2118,937,2103,940,2032,940C1986,940,1941,936,1932,931C1923,926,1844,919,1758,916C1627,911,1593,907,1560,890C1514,866,1492,865,1466,885C1455,893,1440,900,1432,900C1424,900,1407,909,1393,920C1379,931,1354,940,1338,940C1322,940,1298,948,1284,957C1263,971,1232,974,1121,974C1046,975,955,974,918,972ZM1286,859C1296,842,1297,686,1287,673C1280,663,1221,660,1055,660L832,660L828,683C820,720,818,829,825,850C831,869,841,870,1055,870C1206,870,1281,866,1286,859ZM1412,843C1422,834,1430,814,1430,799C1430,783,1436,753,1444,733C1452,712,1466,665,1476,628C1486,590,1500,560,1506,560C1515,560,1531,609,1573,781C1589,844,1605,860,1651,860C1698,860,1706,849,1686,808C1677,791,1670,771,1670,765C1670,758,1663,739,1655,724C1647,708,1640,686,1640,674C1640,663,1636,650,1631,644C1627,639,1611,598,1596,552C1558,430,1558,430,1499,430C1442,430,1449,419,1400,580C1383,638,1357,716,1344,755C1322,819,1322,825,1337,842C1357,864,1388,865,1412,843ZM1828,848C1833,840,1839,748,1841,635L1845,435L1790,435L1735,435L1739,635C1741,748,1747,840,1752,848C1758,854,1775,860,1790,860C1805,860,1822,854,1828,848ZM2216,834C2219,822,2220,801,2218,789C2215,767,2210,765,2155,765L2095,765L2095,600L2095,435L2041,432L1988,429L1991,597L1995,765L1950,767C1925,768,1900,769,1894,769C1879,770,1871,811,1881,836C1887,854,1899,856,2049,856C2208,857,2210,857,2216,834ZM1289,591C1301,569,1307,413,1296,403C1292,399,1195,395,1082,394C968,394,867,390,858,386C832,374,824,405,828,512L831,609L1056,609C1257,608,1281,607,1289,591Z" fill="rgb(216,191,216)" stroke="none" stroke-width="1"/><path id="eyarop7ra3259" d="M904,518C906,500,913,484,920,482C929,479,931,484,927,499C922,519,925,520,1023,520C1142,520,1208,529,1188,541C1181,546,1113,550,1038,550L900,550L904,518Z" fill="rgb(216,191,216)" stroke="none" stroke-width="1"/><path id="eyarop7ra3260" d="M977,493C995,491,1027,491,1047,493C1068,495,1054,497,1015,497C977,497,960,495,977,493Z" fill="rgb(216,191,216)" stroke="none" stroke-width="1"/></g></svg>